<svg width="552" height="139" viewBox="0 0 552 139" fill="none" xmlns="http://www.w3.org/2000/svg">
<path d="M19.3 45.85C9.35 45.85 2.3 38.75 2.3 28C2.3 17.35 10.25 9.3 20.25 9.3C23.9 9.3 26.8 10.05 29.15 11.25L31.25 9H31.75V20.45H31.15C28.7 13.7 24.9 10.25 19.7 10.25C13.6 10.25 7.85 15.2 7.85 27.8C7.85 39.8 14.75 44.05 20.65 44.05C26.65 44.05 30.9 39.85 32.95 35.4L33.75 35.85C31.6 40.75 27.05 45.85 19.3 45.85ZM38.0527 45V44.35C42.5027 44.2 43.7027 42.95 43.7027 40.75V14.35C43.7027 12.2 42.5027 10.9 38.0527 10.75V10.15H53.7027V10.75C48.9527 10.9 48.4527 12.1 48.4527 14.35V44H53.0527C59.6527 44 62.8027 41.85 65.7027 34.05L66.3527 34.1L65.8527 45H38.0527ZM93.3805 40.1L90.3805 31.6H78.3305L76.7305 35.75C74.3305 42 75.1305 43.6 79.6805 44.35V45H68.0805V44.35C71.3305 43.45 73.0305 41.7 75.2805 36.1L86.0805 9.05H87.1805L98.2805 39.15C99.6805 42.9 100.43 43.85 104.33 44.35V45H89.0805V44.35C93.8305 44.15 94.4305 43.05 93.3805 40.1ZM78.7305 30.6H90.0305L84.7805 15.55H84.5805L78.7305 30.6ZM121.825 45.85C113.575 45.85 108.725 42.1 108.725 35.5V14.35C108.725 12.2 107.525 10.9 103.075 10.75V10.15H118.725V10.75C114.025 10.9 113.475 12.1 113.475 14.35V34.15C113.475 41.95 118.475 44.2 124.125 44.2C126.675 44.2 128.975 43.45 130.575 41.85C132.325 40.1 133.375 37.6 133.375 33.9V18.35C133.375 13.5 131.825 11.5 126.775 10.75V10.15H140.225V10.75C135.525 11.6 134.575 13.5 134.575 18.35V34.45C134.575 41.1 130.575 45.85 121.825 45.85ZM143.592 45V44.35C148.042 44.2 149.242 42.95 149.242 40.75V14.35C149.242 12.2 148.042 10.9 143.592 10.75V10.15H158.642C170.892 10.15 177.442 17.5 177.442 27C177.442 36.1 171.692 45 159.142 45H143.592ZM153.992 44H157.542C168.492 44 171.892 40.2 171.892 27.3C171.892 14.2 167.292 11.15 157.892 11.15H153.992V44ZM182.782 45V44.35C187.532 44.2 188.582 42.95 188.582 40.75V14.35C188.582 12.2 187.532 10.9 182.782 10.75V10.15H199.082V10.75C194.332 10.9 193.282 12.2 193.282 14.35V40.75C193.282 42.95 194.332 44.2 199.082 44.35V45H182.782ZM226.043 40.1L223.043 31.6H210.993L209.393 35.75C206.993 42 207.793 43.6 212.343 44.35V45H200.743V44.35C203.993 43.45 205.693 41.7 207.943 36.1L218.743 9.05H219.843L230.943 39.15C232.343 42.9 233.093 43.85 236.993 44.35V45H221.743V44.35C226.493 44.15 227.093 43.05 226.043 40.1ZM211.393 30.6H222.693L217.443 15.55H217.243L211.393 30.6ZM265.768 45.85C257.068 45.85 249.118 38.65 249.118 27.65C249.118 16.75 257.318 9.3 265.768 9.3C274.418 9.3 282.418 16.5 282.418 27.5C282.418 38.4 274.168 45.85 265.768 45.85ZM265.968 44.9C272.368 44.9 276.868 41.05 276.868 27.6C276.868 14.05 271.968 10.25 265.518 10.25C259.118 10.25 254.668 14.1 254.668 27.55C254.668 41.1 259.568 44.9 265.968 44.9ZM287.459 45V44.35C291.909 44.2 293.109 42.95 293.109 40.75V14.35C293.109 12.2 291.909 10.9 287.459 10.75V10.15H302.509C314.759 10.15 321.309 17.5 321.309 27C321.309 36.1 315.559 45 303.009 45H287.459ZM297.859 44H301.409C312.359 44 315.759 40.2 315.759 27.3C315.759 14.2 311.159 11.15 301.759 11.15H297.859V44ZM326.35 45V44.35C330.8 44.2 332 42.95 332 40.75V14.35C332 12.2 330.8 10.9 326.35 10.75V10.15H354.65L354.8 20.95L354.15 21C351.7 14.45 349.15 11.15 343.35 11.15H336.75V26.4H339.9C344.1 26.4 346.2 25 347.55 19.5H348.2V34.3H347.55C346.2 28.8 344.1 27.4 339.9 27.4H336.75V44H343.35C350.15 44 353.05 40.55 355.7 33.55L356.35 33.6L356.1 45H326.35ZM371.832 27.05H376.582C383.682 27.05 385.082 23.7 385.082 18.75C385.082 14.15 382.982 11.15 375.832 11.15H371.832V27.05ZM371.832 28.05V40.75C371.832 43.05 372.632 44.2 377.332 44.35V45H361.432V44.35C365.882 44.2 367.082 42.95 367.082 40.75V14.35C367.082 12.2 365.882 10.9 361.432 10.75V10.15H376.182C386.382 10.15 390.482 13.8 390.482 18.6C390.482 22.95 387.482 26.4 379.882 27.5V27.65C387.282 28 388.882 31.3 389.682 36.65L389.982 38.7C390.782 43.4 391.632 44.05 396.082 44.05V44.6C394.532 45.05 392.682 45.3 390.982 45.3C386.332 45.3 385.332 43.45 384.782 38.85L384.232 34.1C383.632 29.1 382.282 28.05 376.332 28.05H371.832ZM397.693 45V44.35C402.443 44.2 403.493 42.95 403.493 40.75V14.35C403.493 12.2 402.443 10.9 397.693 10.75V10.15H413.993V10.75C409.243 10.9 408.193 12.2 408.193 14.35V40.75C408.193 42.95 409.243 44.2 413.993 44.35V45H397.693ZM436.003 45.85C427.303 45.85 419.353 38.65 419.353 27.65C419.353 16.75 427.553 9.3 436.003 9.3C444.653 9.3 452.653 16.5 452.653 27.5C452.653 38.4 444.403 45.85 436.003 45.85ZM436.203 44.9C442.603 44.9 447.103 41.05 447.103 27.6C447.103 14.05 442.203 10.25 435.753 10.25C429.353 10.25 424.903 14.1 424.903 27.55C424.903 41.1 429.803 44.9 436.203 44.9Z" fill="#A31236"/>
<path d="M60.35 101.655C60.35 106.075 59.6983 110.24 58.395 114.15C57.0917 118.003 55.1933 121.375 52.7 124.265C50.2633 127.098 47.26 129.337 43.69 130.98C40.12 132.623 36.0683 133.445 31.535 133.445C27.0017 133.445 22.9217 132.623 19.295 130.98C15.725 129.337 12.6933 127.098 10.2 124.265C7.76333 121.375 5.89333 118.003 4.59 114.15C3.28667 110.24 2.635 106.075 2.635 101.655C2.635 97.235 3.28667 93.0983 4.59 89.245C5.89333 85.335 7.76333 81.9633 10.2 79.13C12.6933 76.24 15.725 73.9733 19.295 72.33C22.9217 70.6867 27.0017 69.865 31.535 69.865C36.0683 69.865 40.12 70.6867 43.69 72.33C47.26 73.9733 50.2633 76.24 52.7 79.13C55.1933 81.9633 57.0917 85.335 58.395 89.245C59.6983 93.0983 60.35 97.235 60.35 101.655ZM6.375 101.655C6.375 105.565 6.94167 109.248 8.075 112.705C9.20833 116.162 10.8517 119.193 13.005 121.8C15.1583 124.35 17.7933 126.39 20.91 127.92C24.0267 129.45 27.5683 130.215 31.535 130.215C35.5017 130.215 39.015 129.45 42.075 127.92C45.1917 126.39 47.8267 124.35 49.98 121.8C52.1333 119.193 53.7767 116.162 54.91 112.705C56.0433 109.248 56.61 105.565 56.61 101.655C56.61 97.745 56.0433 94.0617 54.91 90.605C53.7767 87.1483 52.1333 84.145 49.98 81.595C47.8267 78.9883 45.1917 76.92 42.075 75.39C39.015 73.86 35.5017 73.095 31.535 73.095C27.5683 73.095 24.0267 73.86 20.91 75.39C17.7933 76.92 15.1583 78.9883 13.005 81.595C10.8517 84.145 9.20833 87.1483 8.075 90.605C6.94167 94.0617 6.375 97.745 6.375 101.655ZM108.818 88.65C108.705 86.0433 108.138 83.7767 107.118 81.85C106.155 79.9233 104.823 78.3083 103.123 77.005C101.423 75.7017 99.3829 74.7383 97.0029 74.115C94.6796 73.435 92.1296 73.095 89.3529 73.095C87.6529 73.095 85.8113 73.2933 83.8279 73.69C81.9013 74.0867 80.0879 74.795 78.3879 75.815C76.7446 76.7783 75.3846 78.11 74.3079 79.81C73.2313 81.4533 72.6929 83.5217 72.6929 86.015C72.6929 88.4517 73.2879 90.435 74.4779 91.965C75.6679 93.495 77.2263 94.7417 79.1529 95.705C81.0796 96.6117 83.2896 97.3483 85.7829 97.915C88.2763 98.4817 90.7979 99.02 93.3479 99.53C95.9546 100.04 98.4763 100.663 100.913 101.4C103.406 102.08 105.616 103.043 107.543 104.29C109.526 105.48 111.113 107.067 112.303 109.05C113.493 110.977 114.088 113.413 114.088 116.36C114.088 119.533 113.408 122.197 112.048 124.35C110.688 126.503 108.96 128.26 106.863 129.62C104.823 130.98 102.528 131.943 99.9779 132.51C97.4846 133.133 95.0763 133.445 92.7529 133.445C89.1829 133.445 85.8396 133.048 82.7229 132.255C79.6063 131.518 76.8863 130.3 74.5629 128.6C72.2396 126.843 70.3979 124.605 69.0379 121.885C67.7346 119.165 67.1113 115.85 67.1679 111.94H70.9079C70.7379 115.283 71.2196 118.117 72.3529 120.44C73.4863 122.707 75.0446 124.577 77.0279 126.05C79.0679 127.523 81.4479 128.6 84.1679 129.28C86.8879 129.903 89.7496 130.215 92.7529 130.215C94.5663 130.215 96.4929 129.988 98.5329 129.535C100.63 129.082 102.528 128.317 104.228 127.24C105.985 126.163 107.43 124.747 108.563 122.99C109.753 121.233 110.348 119.023 110.348 116.36C110.348 113.81 109.753 111.742 108.563 110.155C107.373 108.512 105.786 107.208 103.803 106.245C101.876 105.225 99.6663 104.432 97.1729 103.865C94.7363 103.242 92.2146 102.675 89.6079 102.165C87.0579 101.655 84.5363 101.06 82.0429 100.38C79.5496 99.7 77.3396 98.7933 75.4129 97.66C73.4863 96.47 71.9279 94.9683 70.7379 93.155C69.5479 91.285 68.9529 88.905 68.9529 86.015C68.9529 83.125 69.5479 80.66 70.7379 78.62C71.9846 76.5233 73.5713 74.8517 75.4979 73.605C77.4813 72.3017 79.6913 71.3667 82.1279 70.8C84.5646 70.1767 86.9729 69.865 89.3529 69.865C92.5263 69.865 95.4729 70.2333 98.1929 70.97C100.97 71.65 103.378 72.755 105.418 74.285C107.515 75.7583 109.186 77.685 110.433 80.065C111.68 82.445 112.388 85.3067 112.558 88.65H108.818ZM115.144 74.54V71.31H161.639V74.54H140.219V132H136.479V74.54H115.144ZM166.616 71.31H207.416V74.54H170.356V98.85H205.206V102.08H170.356V128.77H207.841V132H166.616V71.31ZM270.024 101.655C270.024 106.075 269.373 110.24 268.069 114.15C266.766 118.003 264.868 121.375 262.374 124.265C259.938 127.098 256.934 129.337 253.364 130.98C249.794 132.623 245.743 133.445 241.209 133.445C236.676 133.445 232.596 132.623 228.969 130.98C225.399 129.337 222.368 127.098 219.874 124.265C217.438 121.375 215.568 118.003 214.264 114.15C212.961 110.24 212.309 106.075 212.309 101.655C212.309 97.235 212.961 93.0983 214.264 89.245C215.568 85.335 217.438 81.9633 219.874 79.13C222.368 76.24 225.399 73.9733 228.969 72.33C232.596 70.6867 236.676 69.865 241.209 69.865C245.743 69.865 249.794 70.6867 253.364 72.33C256.934 73.9733 259.938 76.24 262.374 79.13C264.868 81.9633 266.766 85.335 268.069 89.245C269.373 93.0983 270.024 97.235 270.024 101.655ZM216.049 101.655C216.049 105.565 216.616 109.248 217.749 112.705C218.883 116.162 220.526 119.193 222.679 121.8C224.833 124.35 227.468 126.39 230.584 127.92C233.701 129.45 237.243 130.215 241.209 130.215C245.176 130.215 248.689 129.45 251.749 127.92C254.866 126.39 257.501 124.35 259.654 121.8C261.808 119.193 263.451 116.162 264.584 112.705C265.718 109.248 266.284 105.565 266.284 101.655C266.284 97.745 265.718 94.0617 264.584 90.605C263.451 87.1483 261.808 84.145 259.654 81.595C257.501 78.9883 254.866 76.92 251.749 75.39C248.689 73.86 245.176 73.095 241.209 73.095C237.243 73.095 233.701 73.86 230.584 75.39C227.468 76.92 224.833 78.9883 222.679 81.595C220.526 84.145 218.883 87.1483 217.749 90.605C216.616 94.0617 216.049 97.745 216.049 101.655ZM278.882 71.31H304.722C306.422 71.31 308.292 71.5083 310.332 71.905C312.429 72.3017 314.356 73.1233 316.112 74.37C317.926 75.56 319.427 77.2883 320.617 79.555C321.807 81.765 322.402 84.6833 322.402 88.31C322.402 93.6367 320.759 97.745 317.472 100.635C314.186 103.525 309.482 104.97 303.362 104.97H282.622V132H278.882V71.31ZM282.622 101.74H303.957C306.677 101.74 308.972 101.343 310.842 100.55C312.769 99.7 314.299 98.6233 315.432 97.32C316.566 96.0167 317.387 94.5717 317.897 92.985C318.407 91.3983 318.662 89.8117 318.662 88.225C318.662 87.0917 318.492 85.76 318.152 84.23C317.812 82.6433 317.132 81.1417 316.112 79.725C315.092 78.2517 313.647 77.0333 311.777 76.07C309.964 75.05 307.527 74.54 304.467 74.54H282.622V101.74ZM341.829 71.31H345.909L369.879 132H365.885L358.235 112.535H329.164L321.429 132H317.434L341.829 71.31ZM357.045 109.305L344.04 74.965H343.87L330.354 109.305H357.045ZM361.86 74.54V71.31H408.355V74.54H386.935V132H383.195V74.54H361.86ZM424.711 71.31H428.791L452.761 132H448.766L441.116 112.535H412.046L404.311 132H400.316L424.711 71.31ZM439.926 109.305L426.921 74.965H426.751L413.236 109.305H439.926Z" fill="#A31236"/>
<path d="M485.012 47.6694H542.068L514.616 90.3359L485.012 47.6694Z" stroke="#A31236" stroke-width="3"/>
<path d="M485.012 133.002H542.068L514.616 90.3359L485.012 133.002Z" stroke="#A31236" stroke-width="3"/>
<path d="M485.014 32.4275C485.014 27.378 497.787 23.2847 513.542 23.2847C529.298 23.2847 542.07 27.378 542.07 32.4275C542.07 37.4769 529.298 41.5703 513.542 41.5703C497.787 41.5703 485.014 37.4769 485.014 32.4275Z" stroke="#A31236" stroke-width="3"/>
<path d="M514.836 5C495.604 5 478.684 18.0661 478.446 36.492C477.802 61.1592 496.099 75.5571 514.638 91.3489C533.291 75.095 548.982 61.2183 549.75 36.492C549.513 18.0645 534.069 5 514.836 5Z" stroke="#A31236" stroke-width="3"/>
<path d="M514.631 47.668C508.714 47.668 500.447 53.65 500.374 62.086C500.176 73.3794 508.927 82.0886 514.631 89.3186C520.094 81.7804 527.562 73.4065 527.798 62.086C527.725 53.6493 520.549 47.668 514.631 47.668Z" stroke="#A31236" stroke-width="3"/>
<path d="M514.631 133C508.714 133 500.447 127.018 500.374 118.582C500.176 107.289 508.927 98.5793 514.631 91.3494C520.094 98.8876 527.562 107.262 527.798 118.582C527.725 127.019 520.549 133 514.631 133Z" stroke="#A31236" stroke-width="3"/>
</svg>
