<svg width="120" height="120" viewBox="0 0 120 120" fill="none" xmlns="http://www.w3.org/2000/svg">
<g clip-path="url(#clip0_1038_113)">
<path d="M108.349 31.3895C106.264 25.6424 102.853 21.9161 98.2404 20.3367C82.0038 14.905 73.7278 8.77896 73.7278 2.21067C73.7276 1.01037 72.7165 0 71.5164 0H48.4568C47.2561 0 46.2456 1.01037 46.2456 2.21067C46.2456 8.77896 38.0321 14.905 21.7324 20.3367C17.1205 21.916 13.7091 25.5787 11.6242 31.3895C4.42157 51.4102 14.7196 92.3367 22.9325 106.547C21.2902 112.484 23.1223 118.231 23.2485 118.484C23.5645 119.369 24.3857 120 25.3336 120H94.7028C95.6502 120 96.535 119.369 96.7872 118.484C96.8503 118.232 98.7462 112.484 97.1033 106.547C105.253 92.3367 115.614 51.4104 108.349 31.3895ZM92.9337 115.579H27.0396C26.6605 113.684 26.2816 110.211 27.4186 106.99C28.5558 103.642 30.2613 99.9156 32.0934 95.9369C35.5685 88.3576 39.1062 80.5896 39.1062 74.5261C39.1062 62.5261 27.8608 37.1364 27.3551 36.0631C26.8499 34.9265 25.5229 34.4213 24.4493 34.9265C23.3122 35.4317 22.8063 36.7581 23.3122 37.8317C23.4383 38.0844 34.6836 63.4104 34.6836 74.463C34.6836 79.5787 31.3353 86.905 28.05 94.0422C26.9759 96.4422 25.9656 98.7159 25.0176 100.927C17.689 85.0735 9.79194 49.4524 15.7937 32.905C17.373 28.4843 19.8371 25.6424 23.1223 24.5683C40.0542 18.8843 49.0251 12.316 50.4785 4.48444H69.5583C70.9478 12.316 79.9193 18.9474 96.9142 24.5683C100.199 25.6424 102.663 28.4844 104.242 32.905C110.245 49.5156 102.347 85.0735 95.0183 100.927C94.0711 98.7159 93.0601 96.4421 91.986 94.0422C88.7642 86.905 85.3522 79.5787 85.3522 74.463C85.3522 63.4104 96.5982 38.0844 96.7244 37.8316C97.2296 36.695 96.7244 35.3686 95.5872 34.9264C94.45 34.4212 93.123 34.9264 92.681 36.0631C92.1758 37.1366 80.9299 62.5261 80.9299 74.5261C80.9299 80.5898 84.4679 88.4213 87.9426 95.9369C89.7748 99.9156 91.4807 103.642 92.6179 106.99C93.6919 110.211 93.3128 113.621 92.9337 115.579Z" fill="#A31236"/>
<path d="M82.4452 40.4839C82.4452 39.2836 81.4349 38.2733 80.234 38.2733H75.9383C74.9273 38.2733 74.1692 37.9573 73.6009 37.1998C71.263 34.4208 71.4528 26.9045 72.1478 22.7992C72.3371 21.5996 71.5159 20.4624 70.3156 20.2733C69.1149 20.0839 67.9777 20.9045 67.7883 22.1048C67.5987 23.3681 65.8301 34.926 70.252 40.1048C71.7051 41.8103 73.727 42.7576 76.0014 42.7576H80.2977C81.4349 42.7576 82.4452 41.7466 82.4452 40.4839ZM49.8457 40.1047C54.2682 34.8629 52.499 23.3681 52.3098 22.1047C52.12 20.9047 50.9829 20.0839 49.7826 20.2733C48.5824 20.4624 47.7612 21.5996 47.9504 22.7992C48.6455 26.9045 48.8353 34.4839 46.4974 37.1998C45.866 37.9573 45.1709 38.2733 44.1599 38.2733H39.8636C38.6635 38.2733 37.6523 39.2836 37.6523 40.4839C37.6523 41.6835 38.6635 42.6944 39.8636 42.6944H44.1599C46.3712 42.7576 48.3925 41.8103 49.8458 40.1048M60.0175 85.3259C61.2178 85.3259 62.2288 84.3155 62.2288 83.1152V36.8839C62.2288 35.6836 61.2178 34.6733 60.0175 34.6733C58.8172 34.6733 57.8064 35.6836 57.8064 36.8839V83.115C57.7433 84.3153 58.7537 85.3259 60.0175 85.3259ZM77.3282 92.4624H71.5789C70.3787 92.4624 69.3677 93.4734 69.3677 94.6731C69.3677 95.8733 70.3787 96.8838 71.5789 96.8838H77.3283C78.5285 96.8838 79.5396 95.8734 79.5396 94.6731C79.5396 93.4734 78.5285 92.4624 77.3282 92.4624ZM50.6675 94.6731C50.6675 93.4734 49.6565 92.4624 48.4562 92.4624H42.6438C41.4435 92.4624 40.4325 93.4734 40.4325 94.6731C40.4325 95.8733 41.4435 96.8838 42.6438 96.8838H48.3926C49.6563 96.8838 50.6675 95.8734 50.6675 94.6731ZM75.4325 104.21L69.6836 101.305C68.6095 100.736 67.2196 101.178 66.7143 102.315C66.1454 103.389 66.5882 104.778 67.7254 105.284L73.4741 108.189C73.7901 108.378 74.1061 108.442 74.4852 108.442C75.3064 108.442 76.0645 107.999 76.5066 107.241C76.9492 106.105 76.5066 104.778 75.4325 104.21ZM50.3515 101.368L44.539 104.21C43.4649 104.778 43.0227 106.105 43.528 107.178C43.907 107.936 44.7282 108.379 45.55 108.379C45.866 108.379 46.2449 108.315 46.5603 108.126L52.3098 105.221C53.3839 104.652 53.826 103.326 53.3208 102.252C52.7519 101.241 51.4255 100.799 50.3515 101.368ZM68.6726 88.231C68.9886 88.231 69.3678 88.1679 69.6836 87.9786L75.4325 85.073C76.5066 84.5047 76.9492 83.1783 76.4434 82.1048C75.8751 81.0313 74.5482 80.5893 73.4741 81.0944L67.7254 83.9995C66.6513 84.5678 66.2091 85.8943 66.7143 86.9676C67.0303 87.7888 67.8515 88.231 68.6728 88.231M52.3098 83.9995L46.5603 81.0943C45.4863 80.5254 44.0968 80.9676 43.591 82.1047C43.0227 83.1783 43.4649 84.5678 44.6021 85.073L50.3515 87.9786C50.6675 88.1679 50.9829 88.2309 51.3618 88.2309C52.1836 88.2309 52.9418 87.7888 53.3839 87.0313C53.8891 85.8941 53.3839 84.5676 52.3098 83.9995ZM60.0175 89.5574C57.1744 89.5574 54.9 91.831 54.9 94.673C54.9 97.515 57.1744 99.7888 60.0175 99.7888C62.8602 99.7888 65.135 97.515 65.135 94.6731C65.135 91.831 62.7971 89.5574 60.0175 89.5574ZM60.0175 95.3051C59.6386 95.3051 59.3226 94.9891 59.3226 94.61C59.3226 94.231 59.6386 93.915 60.0175 93.915C60.3966 93.915 60.7126 94.231 60.7126 94.61C60.7126 94.9891 60.3335 95.3051 60.0175 95.3051Z" fill="#A31236"/>
</g>
<defs>
<clipPath id="clip0_1038_113">
<rect width="120" height="120" fill="white"/>
</clipPath>
</defs>
</svg>
