<svg width="120" height="120" viewBox="0 0 120 120" fill="none" xmlns="http://www.w3.org/2000/svg">
<path fill-rule="evenodd" clip-rule="evenodd" d="M58.4567 0.327302C57.2034 0.311598 55.9609 0.356783 54.7178 0.442413C39.8068 1.47945 25.94 9.77575 18.1604 23.2676C7.80637 41.219 10.1841 63.7202 25.4476 78.6392C28.6674 81.7867 29.6756 84.6229 29.8671 87.9639C30.0587 91.3064 29.2664 95.1867 28.5441 99.7417C28.2182 101.798 28.617 103.872 29.7259 105.663C30.8347 107.453 32.5545 108.972 34.8144 110.403C43.852 116.122 59.2403 119.929 70.7554 118.379C75.5754 117.73 78.3313 114.335 79.0187 110.095C79.4261 107.58 79.8086 105.771 80.4197 104.918C81.0292 104.066 81.8265 103.561 84.5696 103.608C87.3653 103.656 90.311 103.959 93.0766 102.94C95.8428 101.92 97.9979 99.1728 98.4609 94.8226C98.6698 92.8689 98.297 93.046 99.6164 91.355C101.718 88.6629 102.586 86.8568 101.364 83.9181C104.174 83.0432 104.783 80.7863 103.974 78.2144L102.367 73.1149L108.637 70.7758C110.456 70.0975 111.661 68.4898 111.953 66.8192C112.244 65.1491 111.76 63.4106 110.643 62.0414C107.052 57.6443 103.833 55.3423 102.033 51.2254C100.98 48.8192 101.171 47.9703 101.622 46.4355C102.073 44.8992 103.013 42.7238 103.023 39.3713C103.051 29.3052 97.5037 21.4615 92.1646 15.5698C85.5065 8.22019 76.9886 3.65945 69.7803 1.9036L69.9736 1.95634C69.9103 1.93155 69.8458 1.9099 69.7803 1.89145C66.0169 0.88745 62.2201 0.373968 58.4567 0.327302ZM58.4064 4.28404C61.8958 4.32912 65.3661 4.80786 68.7375 5.70923C68.7461 5.71115 68.7553 5.70775 68.7641 5.70923C68.7901 5.71812 68.8145 5.72671 68.8404 5.73545C75.1941 7.28227 83.1616 11.519 89.2333 18.2199C94.3144 23.8263 99.0997 30.758 99.0772 39.3627C99.0702 42.0091 98.3948 43.4165 97.8307 45.3361C97.267 47.2534 97.0563 49.7186 98.4087 52.8106C100.663 57.9646 104.442 60.4929 107.584 64.5509C108.527 65.7701 108.148 66.7464 107.25 67.0803L100.915 69.4432C100.506 69.5965 99.749 69.8402 99.065 70.6509C98.381 71.4617 98.1425 72.8749 98.5129 74.0421L100.208 79.4119C100.466 80.2297 100.103 80.8384 99.091 80.9155C97.5695 81.03 96.5684 82.5925 97.3815 83.8818C98.8074 86.1387 97.6252 87.4854 96.4956 88.9559C94.8329 91.1203 94.7201 92.7418 94.5424 94.4015C94.175 97.8575 93.2438 98.6771 91.7033 99.244C90.1628 99.8112 87.5655 99.7192 84.6356 99.6688C81.2068 99.6098 78.627 100.652 77.208 102.635C75.7895 104.621 75.5181 106.947 75.1142 109.483C74.6298 112.524 72.837 114.135 70.2572 114.466C60.069 115.774 44.8428 112.079 36.9239 107.067C34.9759 105.835 33.7421 104.664 33.0824 103.599C32.4221 102.535 32.2433 101.602 32.44 100.363C33.1431 95.9292 34.036 91.8338 33.801 87.7377C33.5662 83.6399 32.036 79.5577 28.2114 75.8187C14.216 62.1353 12.0662 41.736 21.5812 25.2371C28.6969 12.8972 41.3649 5.32612 54.991 4.37826C56.124 4.29486 57.2612 4.26834 58.4064 4.28404Z" fill="#A31236"/>
<path d="M57.7956 11.7969C51.4297 11.7969 44.9715 13.7859 43.6485 19.1835C39.398 19.8462 35.3749 21.1881 32.2642 23.7038C27.3291 27.6957 24.1822 33.8861 26.0322 40.3883C28.0583 47.5087 33.3922 51.0302 39.8331 51.3456C42.7313 55.5718 46.7156 58.9683 51.7568 59.72C58.3094 60.6963 64.2035 58.9561 69.4379 56.1875C77.9031 59.7564 87.2979 55.3612 89.8182 47.8896C92.2608 40.0892 89.1515 30.4949 80.8622 26.1192C79.4785 25.3884 79.3076 23.9163 78.7156 22.8185C74.8727 15.6858 65.8361 11.7969 57.7956 11.7969ZM57.5902 15.0736C64.8245 15.4689 74.7053 19.2686 76.2875 25.9781C72.8546 24.8907 70.5605 25.0296 67.7268 26.1176C61.0195 22.0684 54.6139 18.2212 47.4263 18.9902C49.3407 15.5748 53.0189 14.8229 57.5902 15.0736ZM64.6196 27.8658C62.0762 29.4966 59.8638 31.5621 58.4761 34.4816C55.1445 31.0221 49.3459 30.22 45.8922 31.0748C45.0745 27.2259 45.3319 24.6348 46.0751 22.2791C52.6642 21.2958 59.6983 24.5621 64.6196 27.8658ZM42.7487 22.4579C42.1635 25.0209 42.2389 28.0071 42.8777 31.4105C35.7614 34.8398 33.8325 42.5429 38.5727 47.9665C34.3968 47.4498 30.1491 43.0806 29.2302 39.6035C27.9506 34.3508 30.1579 29.6355 34.3319 26.2582C36.6371 24.3948 39.582 23.1662 42.7487 22.4579ZM70.8251 28.7397C72.8598 28.3827 74.9351 28.3827 77.1093 28.9972C80.2736 40.3849 77.6035 47.7455 68.6405 52.8751C63.1156 52.3721 57.7469 48.6812 54.0045 45.4381C55.9102 43.4318 57.7539 41.415 58.8992 38.8102C61.582 41.5649 65.4807 45.2779 69.45 45.0533C71.2411 44.9179 72.9767 44.0429 73.9339 42.5238C76.8013 37.9735 75.3616 32.0053 70.8251 28.7397ZM66.9188 29.7032C70.2244 31.7321 74.0525 37.1071 71.3002 40.5435C67.4934 43.2124 63.4807 39.028 60.8783 36.2929C62.1231 33.2512 64.3182 31.125 66.9188 29.7032ZM80.7198 30.4984C86.1804 34.1789 88.4796 41.161 86.6816 46.9018C83.766 53.9295 78.7857 54.6616 73.2272 53.5551C81.4749 48.9474 83.1075 39.033 80.7198 30.4984ZM43.4413 34.4677C44.3708 38.8664 47.2955 42.6401 50.0722 45.5649C48.2702 47.7715 44.5641 48.3942 42.1567 48.4289C37.8887 44.2917 38.0976 36.5469 43.4414 34.4677M46.1435 33.8427C49.7813 33.2287 53.5099 34.3144 56.4328 36.8827C55.4681 39.2871 53.7343 40.9856 52.0897 42.816C49.3391 40.6477 46.7505 36.9087 46.1435 33.8427ZM52.0013 48.1592C55.519 51.1923 59.6429 53.6037 63.669 55.3385C60.1007 56.3966 56.2795 57.0718 52.2327 56.4695C49.3062 56.033 46.7176 53.999 44.4583 51.7421C47.4525 50.9954 49.9365 50.3258 52.0013 48.1592Z" fill="#A31236"/>
</svg>
