<svg width="120" height="120" viewBox="0 0 120 120" fill="none" xmlns="http://www.w3.org/2000/svg">
<path d="M21.9415 21.3197L15.3423 14.6543C14.2109 13.5224 12.3879 13.5224 11.319 14.6543C10.1878 15.7861 10.1878 17.6098 11.319 18.6791L17.9192 25.3446C18.4846 25.9106 19.2392 26.2248 19.9301 26.2248C20.6848 26.2248 21.3763 25.9731 21.9417 25.407C22.2106 25.139 22.424 24.8204 22.5696 24.4698C22.7152 24.1191 22.7902 23.7431 22.7902 23.3634C22.7902 22.9837 22.7152 22.6077 22.5696 22.257C22.424 21.9063 22.2105 21.5878 21.9415 21.3197ZM30.5526 17.6728C30.93 18.8677 32.0614 19.6218 33.2553 19.6218C33.5694 19.6218 33.8212 19.5593 34.1355 19.4962C35.6442 18.9934 36.4614 17.3584 35.9584 15.9117L32.6898 5.851C32.187 4.34182 30.6158 3.52404 29.1072 4.02745C27.5984 4.53041 26.7812 6.16522 27.2842 7.67456L30.5526 17.6728ZM14.1476 33.8968L4.15413 30.5009C2.64539 29.998 1.01116 30.815 0.5082 32.2614C0.00538543 33.7706 0.822571 35.4054 2.2682 35.9088L12.1993 39.3042C12.5134 39.4303 12.8278 39.4303 13.142 39.4303C14.3365 39.4303 15.4679 38.6756 15.8451 37.4806C16.4106 36.0344 15.5931 34.3996 14.1476 33.8968ZM108.241 11.9506C109.813 11.9506 111.132 10.6931 111.132 9.12063C111.132 7.54878 109.875 6.22834 108.304 6.22834L92.0243 6.10211C89 6.10211 87.003 8.12281 86.5 8.5C86.3114 8.62622 70.5283 21.3199 40.8606 25.722C34.5753 26.6652 29.6725 29.4946 26.3415 34.1479C17.4793 46.4731 21.4387 68.859 24.7072 86.8434C25.9642 94.0123 27.0956 100.238 27.1586 104.451C27.1586 106.023 28.4786 107.28 30.0498 107.28C31.6211 107.28 32.8786 105.96 32.8786 104.388C32.8155 99.6716 31.684 93.2578 30.364 85.8377C27.4728 69.8024 23.5759 47.8562 31.0556 37.4806C33.507 34.0848 37.0267 32.1357 41.8038 31.3811C69.9624 27.2306 86.5 15.5 90 13.5L92.0244 11.9506H108.241Z" fill="#A31236"/>
<mask id="mask0_1038_119" style="mask-type:luminance" maskUnits="userSpaceOnUse" x="57" y="66" width="63" height="51">
<path d="M57.6289 66.5195H119.851V116.526H57.6289V66.5195Z" fill="white"/>
</mask>
<g mask="url(#mask0_1038_119)">
<path d="M116.787 84.0156C115.278 84.0785 113.895 85.2736 113.895 86.8453L113.833 95.523C113.833 97.1585 113.141 98.7302 111.947 99.8622C110.753 100.994 109.056 101.56 107.484 101.435L75.3028 99.0445C71.0916 98.7302 67.823 95.4606 67.2576 91.3732C67.4462 88.9206 67.4462 86.5942 67.1945 84.7077L67.3201 66.7233L61.6007 66.6602L61.4747 90.1781C61.4747 90.5554 61.5378 90.9328 61.6007 91.3099C61.0348 98.8559 58.8351 108.855 57.8293 113.004C57.452 114.514 58.3948 116.086 59.9034 116.463C60.1553 116.526 60.4064 116.526 60.595 116.526C61.852 116.526 63.0464 115.646 63.3606 114.388C63.4862 113.948 64.9948 107.785 66.1887 100.805C68.5147 103.006 71.5314 104.452 74.9255 104.704L107.107 107.094C107.421 107.094 107.673 107.157 107.987 107.157C110.879 107.157 113.77 106.025 115.907 104.075C118.295 101.874 119.615 98.7933 119.678 95.5862L119.741 86.9085C119.678 85.3362 118.421 84.0156 116.787 84.0156Z" fill="#A31236"/>
</g>
<path d="M101.829 47.5409C101.137 48.9872 101.703 50.6851 103.149 51.3765C103.274 51.4396 113.079 56.3448 114.148 63.7649C114.337 65.2112 115.594 66.2168 116.976 66.2168H117.354C118.925 65.9657 119.994 64.519 119.805 62.9472C118.296 52.5086 106.166 46.4721 105.663 46.2203C104.217 45.5288 102.52 46.1572 101.829 47.5409Z" fill="#A31236"/>
</svg>
