<svg width="1084" height="237" viewBox="0 0 1084 237" fill="none" xmlns="http://www.w3.org/2000/svg">
<path d="M39.758 76.751C19.261 76.751 4.738 62.125 4.738 39.98C4.738 18.041 21.115 1.458 41.715 1.458C49.234 1.458 55.208 3.00299 60.049 5.475L64.375 0.839997H65.405V24.427H64.169C59.122 10.522 51.294 3.41499 40.582 3.41499C28.016 3.41499 16.171 13.612 16.171 39.568C16.171 64.288 30.385 73.043 42.539 73.043C54.899 73.043 63.654 64.391 67.877 55.224L69.525 56.151C65.096 66.245 55.723 76.751 39.758 76.751ZM78.3886 75V73.661C87.5556 73.352 90.0276 70.777 90.0276 66.245V11.861C90.0276 7.432 87.5556 4.754 78.3886 4.44499V3.209H110.628V4.44499C100.843 4.754 99.8126 7.22599 99.8126 11.861V72.94H109.289C122.885 72.94 129.374 68.511 135.348 52.443L136.687 52.546L135.657 75H78.3886ZM192.364 64.906L186.184 47.396H161.361L158.065 55.945C153.121 68.82 154.769 72.116 164.142 73.661V75H140.246V73.661C146.941 71.807 150.443 68.202 155.078 56.666L177.326 0.942996H179.592L202.458 62.949C205.342 70.674 206.887 72.631 214.921 73.661V75H183.506V73.661C193.291 73.249 194.527 70.983 192.364 64.906ZM162.185 45.336H185.463L174.648 14.333H174.236L162.185 45.336ZM250.959 76.751C233.964 76.751 223.973 69.026 223.973 55.43V11.861C223.973 7.432 221.501 4.754 212.334 4.44499V3.209H244.573V4.44499C234.891 4.754 233.758 7.22599 233.758 11.861V52.649C233.758 68.717 244.058 73.352 255.697 73.352C260.95 73.352 265.688 71.807 268.984 68.511C272.589 64.906 274.752 59.756 274.752 52.134V20.101C274.752 10.11 271.559 5.99 261.156 4.44499V3.209H288.863V4.44499C279.181 6.196 277.224 10.11 277.224 20.101V53.267C277.224 66.966 268.984 76.751 250.959 76.751ZM295.799 75V73.661C304.966 73.352 307.438 70.777 307.438 66.245V11.861C307.438 7.432 304.966 4.754 295.799 4.44499V3.209H326.802C352.037 3.209 365.53 18.35 365.53 37.92C365.53 56.666 353.685 75 327.832 75H295.799ZM317.223 72.94H324.536C347.093 72.94 354.097 65.112 354.097 38.538C354.097 11.552 344.621 5.269 325.257 5.269H317.223V72.94ZM376.532 75V73.661C386.317 73.352 388.48 70.777 388.48 66.245V11.861C388.48 7.432 386.317 4.754 376.532 4.44499V3.209H410.11V4.44499C400.325 4.754 398.162 7.432 398.162 11.861V66.245C398.162 70.777 400.325 73.352 410.11 73.661V75H376.532ZM465.648 64.906L459.468 47.396H434.645L431.349 55.945C426.405 68.82 428.053 72.116 437.426 73.661V75H413.53V73.661C420.225 71.807 423.727 68.202 428.362 56.666L450.61 0.942996H452.876L475.742 62.949C478.626 70.674 480.171 72.631 488.205 73.661V75H456.79V73.661C466.575 73.249 467.811 70.983 465.648 64.906ZM435.469 45.336H458.747L447.932 14.333H447.52L435.469 45.336ZM547.483 76.751C529.561 76.751 513.184 61.919 513.184 39.259C513.184 16.805 530.076 1.458 547.483 1.458C565.302 1.458 581.782 16.29 581.782 38.95C581.782 61.404 564.787 76.751 547.483 76.751ZM547.895 74.794C561.079 74.794 570.349 66.863 570.349 39.156C570.349 11.243 560.255 3.41499 546.968 3.41499C533.784 3.41499 524.617 11.346 524.617 39.053C524.617 66.966 534.711 74.794 547.895 74.794ZM592.165 75V73.661C601.332 73.352 603.804 70.777 603.804 66.245V11.861C603.804 7.432 601.332 4.754 592.165 4.44499V3.209H623.168C648.403 3.209 661.896 18.35 661.896 37.92C661.896 56.666 650.051 75 624.198 75H592.165ZM613.589 72.94H620.902C643.459 72.94 650.463 65.112 650.463 38.538C650.463 11.552 640.987 5.269 621.623 5.269H613.589V72.94ZM672.28 75V73.661C681.447 73.352 683.919 70.777 683.919 66.245V11.861C683.919 7.432 681.447 4.754 672.28 4.44499V3.209H730.578L730.887 25.457L729.548 25.56C724.501 12.067 719.248 5.269 707.3 5.269H693.704V36.684H700.193C708.845 36.684 713.171 33.8 715.952 22.47H717.291V52.958H715.952C713.171 41.628 708.845 38.744 700.193 38.744H693.704V72.94H707.3C721.308 72.94 727.282 65.833 732.741 51.413L734.08 51.516L733.565 75H672.28ZM765.973 38.023H775.758C790.384 38.023 793.268 31.122 793.268 20.925C793.268 11.449 788.942 5.269 774.213 5.269H765.973V38.023ZM765.973 40.083V66.245C765.973 70.983 767.621 73.352 777.303 73.661V75H744.549V73.661C753.716 73.352 756.188 70.777 756.188 66.245V11.861C756.188 7.432 753.716 4.754 744.549 4.44499V3.209H774.934C795.946 3.209 804.392 10.728 804.392 20.616C804.392 29.577 798.212 36.684 782.556 38.95V39.259C797.8 39.98 801.096 46.778 802.744 57.799L803.362 62.022C805.01 71.704 806.761 73.043 815.928 73.043V74.176C812.735 75.103 808.924 75.618 805.422 75.618C795.843 75.618 793.783 71.807 792.65 62.331L791.517 52.546C790.281 42.246 787.5 40.083 775.243 40.083H765.973ZM819.247 75V73.661C829.032 73.352 831.195 70.777 831.195 66.245V11.861C831.195 7.432 829.032 4.754 819.247 4.44499V3.209H852.825V4.44499C843.04 4.754 840.877 7.432 840.877 11.861V66.245C840.877 70.777 843.04 73.352 852.825 73.661V75H819.247ZM898.166 76.751C880.244 76.751 863.867 61.919 863.867 39.259C863.867 16.805 880.759 1.458 898.166 1.458C915.985 1.458 932.465 16.29 932.465 38.95C932.465 61.404 915.47 76.751 898.166 76.751ZM898.578 74.794C911.762 74.794 921.032 66.863 921.032 39.156C921.032 11.243 910.938 3.41499 897.651 3.41499C884.467 3.41499 875.3 11.346 875.3 39.053C875.3 66.966 885.394 74.794 898.578 74.794Z" fill="#1A0B02"/>
<path d="M124.96 167.168C124.96 176.32 123.611 184.944 120.912 193.04C118.213 201.019 114.283 208 109.12 213.984C104.075 219.851 97.856 224.485 90.464 227.888C83.072 231.291 74.6827 232.992 65.296 232.992C55.9093 232.992 47.4613 231.291 39.952 227.888C32.56 224.485 26.2827 219.851 21.12 213.984C16.0747 208 12.2027 201.019 9.504 193.04C6.80533 184.944 5.456 176.32 5.456 167.168C5.456 158.016 6.80533 149.451 9.504 141.472C12.2027 133.376 16.0747 126.395 21.12 120.528C26.2827 114.544 32.56 109.851 39.952 106.448C47.4613 103.045 55.9093 101.344 65.296 101.344C74.6827 101.344 83.072 103.045 90.464 106.448C97.856 109.851 104.075 114.544 109.12 120.528C114.283 126.395 118.213 133.376 120.912 141.472C123.611 149.451 124.96 158.016 124.96 167.168ZM13.2 167.168C13.2 175.264 14.3733 182.891 16.72 190.048C19.0667 197.205 22.4693 203.483 26.928 208.88C31.3867 214.16 36.8427 218.384 43.296 221.552C49.7493 224.72 57.0827 226.304 65.296 226.304C73.5093 226.304 80.784 224.72 87.12 221.552C93.5733 218.384 99.0293 214.16 103.488 208.88C107.947 203.483 111.349 197.205 113.696 190.048C116.043 182.891 117.216 175.264 117.216 167.168C117.216 159.072 116.043 151.445 113.696 144.288C111.349 137.131 107.947 130.912 103.488 125.632C99.0293 120.235 93.5733 115.952 87.12 112.784C80.784 109.616 73.5093 108.032 65.296 108.032C57.0827 108.032 49.7493 109.616 43.296 112.784C36.8427 115.952 31.3867 120.235 26.928 125.632C22.4693 130.912 19.0667 137.131 16.72 144.288C14.3733 151.445 13.2 159.072 13.2 167.168ZM225.317 140.24C225.082 134.843 223.909 130.149 221.797 126.16C219.802 122.171 217.045 118.827 213.525 116.128C210.005 113.429 205.781 111.435 200.853 110.144C196.042 108.736 190.762 108.032 185.013 108.032C181.493 108.032 177.68 108.443 173.573 109.264C169.584 110.085 165.829 111.552 162.309 113.664C158.906 115.659 156.09 118.416 153.861 121.936C151.632 125.339 150.517 129.621 150.517 134.784C150.517 139.829 151.749 143.936 154.213 147.104C156.677 150.272 159.904 152.853 163.893 154.848C167.882 156.725 172.458 158.251 177.621 159.424C182.784 160.597 188.005 161.712 193.285 162.768C198.682 163.824 203.904 165.115 208.949 166.64C214.112 168.048 218.688 170.043 222.677 172.624C226.784 175.088 230.069 178.373 232.533 182.48C234.997 186.469 236.229 191.515 236.229 197.616C236.229 204.187 234.821 209.701 232.005 214.16C229.189 218.619 225.61 222.256 221.269 225.072C217.045 227.888 212.293 229.883 207.013 231.056C201.85 232.347 196.864 232.992 192.053 232.992C184.661 232.992 177.738 232.171 171.285 230.528C164.832 229.003 159.2 226.48 154.389 222.96C149.578 219.323 145.765 214.688 142.949 209.056C140.25 203.424 138.96 196.56 139.077 188.464H146.821C146.469 195.387 147.466 201.253 149.813 206.064C152.16 210.757 155.386 214.629 159.493 217.68C163.717 220.731 168.645 222.96 174.277 224.368C179.909 225.659 185.834 226.304 192.053 226.304C195.808 226.304 199.797 225.835 204.021 224.896C208.362 223.957 212.293 222.373 215.813 220.144C219.45 217.915 222.442 214.981 224.789 211.344C227.253 207.707 228.485 203.131 228.485 197.616C228.485 192.336 227.253 188.053 224.789 184.768C222.325 181.365 219.04 178.667 214.933 176.672C210.944 174.56 206.368 172.917 201.205 171.744C196.16 170.453 190.938 169.28 185.541 168.224C180.261 167.168 175.04 165.936 169.877 164.528C164.714 163.12 160.138 161.243 156.149 158.896C152.16 156.432 148.933 153.323 146.469 149.568C144.005 145.696 142.773 140.768 142.773 134.784C142.773 128.8 144.005 123.696 146.469 119.472C149.05 115.131 152.336 111.669 156.325 109.088C160.432 106.389 165.008 104.453 170.053 103.28C175.098 101.989 180.085 101.344 185.013 101.344C191.584 101.344 197.685 102.107 203.317 103.632C209.066 105.04 214.053 107.328 218.277 110.496C222.618 113.547 226.08 117.536 228.661 122.464C231.242 127.392 232.709 133.317 233.061 140.24H225.317ZM238.415 111.024V104.336H334.687V111.024H290.335V230H282.591V111.024H238.415ZM344.993 104.336H429.473V111.024H352.737V161.36H424.897V168.048H352.737V223.312H430.353V230H344.993V104.336ZM559.109 167.168C559.109 176.32 557.76 184.944 555.061 193.04C552.363 201.019 548.432 208 543.269 213.984C538.224 219.851 532.005 224.485 524.613 227.888C517.221 231.291 508.832 232.992 499.445 232.992C490.059 232.992 481.611 231.291 474.101 227.888C466.709 224.485 460.432 219.851 455.269 213.984C450.224 208 446.352 201.019 443.653 193.04C440.955 184.944 439.605 176.32 439.605 167.168C439.605 158.016 440.955 149.451 443.653 141.472C446.352 133.376 450.224 126.395 455.269 120.528C460.432 114.544 466.709 109.851 474.101 106.448C481.611 103.045 490.059 101.344 499.445 101.344C508.832 101.344 517.221 103.045 524.613 106.448C532.005 109.851 538.224 114.544 543.269 120.528C548.432 126.395 552.363 133.376 555.061 141.472C557.76 149.451 559.109 158.016 559.109 167.168ZM447.349 167.168C447.349 175.264 448.523 182.891 450.869 190.048C453.216 197.205 456.619 203.483 461.077 208.88C465.536 214.16 470.992 218.384 477.445 221.552C483.899 224.72 491.232 226.304 499.445 226.304C507.659 226.304 514.933 224.72 521.269 221.552C527.723 218.384 533.179 214.16 537.637 208.88C542.096 203.483 545.499 197.205 547.845 190.048C550.192 182.891 551.365 175.264 551.365 167.168C551.365 159.072 550.192 151.445 547.845 144.288C545.499 137.131 542.096 130.912 537.637 125.632C533.179 120.235 527.723 115.952 521.269 112.784C514.933 109.616 507.659 108.032 499.445 108.032C491.232 108.032 483.899 109.616 477.445 112.784C470.992 115.952 465.536 120.235 461.077 125.632C456.619 130.912 453.216 137.131 450.869 144.288C448.523 151.445 447.349 159.072 447.349 167.168ZM577.45 104.336H630.954C634.474 104.336 638.346 104.747 642.57 105.568C646.912 106.389 650.901 108.091 654.538 110.672C658.293 113.136 661.402 116.715 663.866 121.408C666.33 125.984 667.562 132.027 667.562 139.536C667.562 150.565 664.16 159.072 657.354 165.056C650.549 171.04 640.81 174.032 628.138 174.032H585.194V230H577.45V104.336ZM585.194 167.344H629.37C635.002 167.344 639.754 166.523 643.626 164.88C647.616 163.12 650.784 160.891 653.13 158.192C655.477 155.493 657.178 152.501 658.234 149.216C659.29 145.931 659.818 142.645 659.818 139.36C659.818 137.013 659.466 134.256 658.762 131.088C658.058 127.803 656.65 124.693 654.538 121.76C652.426 118.709 649.434 116.187 645.562 114.192C641.808 112.08 636.762 111.024 630.426 111.024H585.194V167.344ZM707.788 104.336H716.236L765.868 230H757.596L741.756 189.696H681.564L665.548 230H657.276L707.788 104.336ZM739.292 183.008L712.364 111.904H712.012L684.028 183.008H739.292ZM749.262 111.024V104.336H845.534V111.024H801.182V230H793.438V111.024H749.262ZM879.402 104.336H887.85L937.482 230H929.21L913.37 189.696H853.178L837.162 230H828.89L879.402 104.336ZM910.906 183.008L883.978 111.904H883.626L855.642 183.008H910.906Z" fill="#1A0B02"/>
<path d="M973.34 79.5987H1067.84L1022.37 152.934L973.34 79.5987Z" stroke="#1A0B02" stroke-width="6"/>
<path d="M973.34 226.269H1067.84L1022.37 152.934L973.34 226.269Z" stroke="#1A0B02" stroke-width="6"/>
<path d="M973.338 53.4104C973.338 44.7314 994.492 37.6957 1020.59 37.6957C1046.68 37.6957 1067.84 44.7314 1067.84 53.4104C1067.84 62.0893 1046.68 69.125 1020.59 69.125C994.492 69.125 973.338 62.0893 973.338 53.4104Z" stroke="#1A0B02" stroke-width="6"/>
<path d="M1022.73 6.26562C990.883 6.26562 962.858 28.7235 962.465 60.3938C961.398 102.792 991.702 127.539 1022.41 154.682C1053.3 126.744 1079.29 102.893 1080.56 60.3938C1080.17 28.7208 1054.59 6.26562 1022.73 6.26562Z" stroke="#1A0B02" stroke-width="6"/>
<path d="M1022.4 79.6055C1012.6 79.6055 998.912 89.8874 998.791 104.387C998.462 123.798 1012.96 138.767 1022.4 151.194C1031.45 138.238 1043.82 123.845 1044.21 104.387C1044.09 89.8861 1032.21 79.6055 1022.4 79.6055Z" stroke="#1A0B02" stroke-width="6"/>
<path d="M1022.4 226.262C1012.6 226.262 998.912 215.98 998.791 201.48C998.462 182.069 1012.96 167.1 1022.4 154.673C1031.45 167.629 1043.82 182.023 1044.21 201.48C1044.09 215.981 1032.21 226.262 1022.4 226.262Z" stroke="#1A0B02" stroke-width="6"/>
</svg>
