<svg width="1084" height="237" viewBox="0 0 1084 237" fill="none" xmlns="http://www.w3.org/2000/svg">
<path d="M40.758 76.751C20.261 76.751 5.738 62.125 5.738 39.98C5.738 18.041 22.115 1.458 42.715 1.458C50.234 1.458 56.208 3.00299 61.049 5.475L65.375 0.839997H66.405V24.427H65.169C60.122 10.522 52.294 3.41499 41.582 3.41499C29.016 3.41499 17.171 13.612 17.171 39.568C17.171 64.288 31.385 73.043 43.539 73.043C55.899 73.043 64.654 64.391 68.877 55.224L70.525 56.151C66.096 66.245 56.723 76.751 40.758 76.751ZM79.3886 75V73.661C88.5556 73.352 91.0276 70.777 91.0276 66.245V11.861C91.0276 7.432 88.5556 4.754 79.3886 4.44499V3.209H111.628V4.44499C101.843 4.754 100.813 7.22599 100.813 11.861V72.94H110.289C123.885 72.94 130.374 68.511 136.348 52.443L137.687 52.546L136.657 75H79.3886ZM193.364 64.906L187.184 47.396H162.361L159.065 55.945C154.121 68.82 155.769 72.116 165.142 73.661V75H141.246V73.661C147.941 71.807 151.443 68.202 156.078 56.666L178.326 0.942996H180.592L203.458 62.949C206.342 70.674 207.887 72.631 215.921 73.661V75H184.506V73.661C194.291 73.249 195.527 70.983 193.364 64.906ZM163.185 45.336H186.463L175.648 14.333H175.236L163.185 45.336ZM251.959 76.751C234.964 76.751 224.973 69.026 224.973 55.43V11.861C224.973 7.432 222.501 4.754 213.334 4.44499V3.209H245.573V4.44499C235.891 4.754 234.758 7.22599 234.758 11.861V52.649C234.758 68.717 245.058 73.352 256.697 73.352C261.95 73.352 266.688 71.807 269.984 68.511C273.589 64.906 275.752 59.756 275.752 52.134V20.101C275.752 10.11 272.559 5.99 262.156 4.44499V3.209H289.863V4.44499C280.181 6.196 278.224 10.11 278.224 20.101V53.267C278.224 66.966 269.984 76.751 251.959 76.751ZM296.799 75V73.661C305.966 73.352 308.438 70.777 308.438 66.245V11.861C308.438 7.432 305.966 4.754 296.799 4.44499V3.209H327.802C353.037 3.209 366.53 18.35 366.53 37.92C366.53 56.666 354.685 75 328.832 75H296.799ZM318.223 72.94H325.536C348.093 72.94 355.097 65.112 355.097 38.538C355.097 11.552 345.621 5.269 326.257 5.269H318.223V72.94ZM377.532 75V73.661C387.317 73.352 389.48 70.777 389.48 66.245V11.861C389.48 7.432 387.317 4.754 377.532 4.44499V3.209H411.11V4.44499C401.325 4.754 399.162 7.432 399.162 11.861V66.245C399.162 70.777 401.325 73.352 411.11 73.661V75H377.532ZM466.648 64.906L460.468 47.396H435.645L432.349 55.945C427.405 68.82 429.053 72.116 438.426 73.661V75H414.53V73.661C421.225 71.807 424.727 68.202 429.362 56.666L451.61 0.942996H453.876L476.742 62.949C479.626 70.674 481.171 72.631 489.205 73.661V75H457.79V73.661C467.575 73.249 468.811 70.983 466.648 64.906ZM436.469 45.336H459.747L448.932 14.333H448.52L436.469 45.336ZM548.483 76.751C530.561 76.751 514.184 61.919 514.184 39.259C514.184 16.805 531.076 1.458 548.483 1.458C566.302 1.458 582.782 16.29 582.782 38.95C582.782 61.404 565.787 76.751 548.483 76.751ZM548.895 74.794C562.079 74.794 571.349 66.863 571.349 39.156C571.349 11.243 561.255 3.41499 547.968 3.41499C534.784 3.41499 525.617 11.346 525.617 39.053C525.617 66.966 535.711 74.794 548.895 74.794ZM593.165 75V73.661C602.332 73.352 604.804 70.777 604.804 66.245V11.861C604.804 7.432 602.332 4.754 593.165 4.44499V3.209H624.168C649.403 3.209 662.896 18.35 662.896 37.92C662.896 56.666 651.051 75 625.198 75H593.165ZM614.589 72.94H621.902C644.459 72.94 651.463 65.112 651.463 38.538C651.463 11.552 641.987 5.269 622.623 5.269H614.589V72.94ZM673.28 75V73.661C682.447 73.352 684.919 70.777 684.919 66.245V11.861C684.919 7.432 682.447 4.754 673.28 4.44499V3.209H731.578L731.887 25.457L730.548 25.56C725.501 12.067 720.248 5.269 708.3 5.269H694.704V36.684H701.193C709.845 36.684 714.171 33.8 716.952 22.47H718.291V52.958H716.952C714.171 41.628 709.845 38.744 701.193 38.744H694.704V72.94H708.3C722.308 72.94 728.282 65.833 733.741 51.413L735.08 51.516L734.565 75H673.28ZM766.973 38.023H776.758C791.384 38.023 794.268 31.122 794.268 20.925C794.268 11.449 789.942 5.269 775.213 5.269H766.973V38.023ZM766.973 40.083V66.245C766.973 70.983 768.621 73.352 778.303 73.661V75H745.549V73.661C754.716 73.352 757.188 70.777 757.188 66.245V11.861C757.188 7.432 754.716 4.754 745.549 4.44499V3.209H775.934C796.946 3.209 805.392 10.728 805.392 20.616C805.392 29.577 799.212 36.684 783.556 38.95V39.259C798.8 39.98 802.096 46.778 803.744 57.799L804.362 62.022C806.01 71.704 807.761 73.043 816.928 73.043V74.176C813.735 75.103 809.924 75.618 806.422 75.618C796.843 75.618 794.783 71.807 793.65 62.331L792.517 52.546C791.281 42.246 788.5 40.083 776.243 40.083H766.973ZM820.247 75V73.661C830.032 73.352 832.195 70.777 832.195 66.245V11.861C832.195 7.432 830.032 4.754 820.247 4.44499V3.209H853.825V4.44499C844.04 4.754 841.877 7.432 841.877 11.861V66.245C841.877 70.777 844.04 73.352 853.825 73.661V75H820.247ZM899.166 76.751C881.244 76.751 864.867 61.919 864.867 39.259C864.867 16.805 881.759 1.458 899.166 1.458C916.985 1.458 933.465 16.29 933.465 38.95C933.465 61.404 916.47 76.751 899.166 76.751ZM899.578 74.794C912.762 74.794 922.032 66.863 922.032 39.156C922.032 11.243 911.938 3.41499 898.651 3.41499C885.467 3.41499 876.3 11.346 876.3 39.053C876.3 66.966 886.394 74.794 899.578 74.794Z" fill="#A31236"/>
<path d="M61.049 5.475L60.8216 5.9203L61.1573 6.09173L61.4145 5.81616L61.049 5.475ZM65.375 0.839997V0.339997H65.1577L65.0095 0.498838L65.375 0.839997ZM66.405 0.839997H66.905V0.339997H66.405V0.839997ZM66.405 24.427V24.927H66.905V24.427H66.405ZM65.169 24.427L64.699 24.5976L64.8186 24.927H65.169V24.427ZM68.877 55.224L69.1221 54.7882L68.6497 54.5225L68.4229 55.0148L68.877 55.224ZM70.525 56.151L70.9829 56.3519L71.1648 55.9372L70.7701 55.7152L70.525 56.151ZM40.758 76.251C30.6324 76.251 22.0117 72.6408 15.9216 66.3229C9.83055 60.0039 6.238 50.9414 6.238 39.98H5.238C5.238 51.1636 8.90696 60.4866 15.2016 67.0169C21.4973 73.5482 30.3866 77.251 40.758 77.251V76.251ZM6.238 39.98C6.238 18.3018 22.4062 1.958 42.715 1.958V0.957995C21.8238 0.957995 5.238 17.7802 5.238 39.98H6.238ZM42.715 1.958C50.1627 1.958 56.0577 3.48764 60.8216 5.9203L61.2764 5.0297C56.3584 2.51835 50.3053 0.957995 42.715 0.957995V1.958ZM61.4145 5.81616L65.7405 1.18116L65.0095 0.498838L60.6835 5.13384L61.4145 5.81616ZM65.375 1.34H66.405V0.339997H65.375V1.34ZM65.905 0.839997V24.427H66.905V0.839997H65.905ZM66.405 23.927H65.169V24.927H66.405V23.927ZM65.639 24.2564C63.0984 17.2568 59.842 11.9222 55.8333 8.33406C51.8142 4.73663 47.0603 2.91499 41.582 2.91499V3.91499C46.8157 3.91499 51.3318 5.64686 55.1664 9.07918C59.0115 12.5208 62.1926 17.6922 64.699 24.5976L65.639 24.2564ZM41.582 2.91499C35.1539 2.91499 28.9024 5.52837 24.2704 11.4499C19.6475 17.3599 16.671 26.5206 16.671 39.568H17.671C17.671 26.6594 20.617 17.7436 25.0581 12.0661C29.4901 6.40012 35.4441 3.91499 41.582 3.91499V2.91499ZM16.671 39.568C16.671 52.0252 20.2546 60.5293 25.4367 65.9219C30.6159 71.3114 37.3445 73.543 43.539 73.543V72.543C37.5795 72.543 31.1241 70.3971 26.1578 65.2291C21.1944 60.0642 17.671 51.8308 17.671 39.568H16.671ZM43.539 73.543C56.1608 73.543 65.0586 64.7078 69.3311 55.4332L68.4229 55.0148C64.2494 64.0742 55.6373 72.543 43.539 72.543V73.543ZM68.6319 55.6598L70.2799 56.5868L70.7701 55.7152L69.1221 54.7882L68.6319 55.6598ZM70.0671 55.9501C65.6861 65.9348 56.456 76.251 40.758 76.251V77.251C56.99 77.251 66.5059 66.5552 70.9829 56.3519L70.0671 55.9501ZM79.3886 75H78.8886V75.5H79.3886V75ZM79.3886 73.661L79.3718 73.1613L78.8886 73.1776V73.661H79.3886ZM79.3886 4.44499H78.8886V4.92842L79.3718 4.94471L79.3886 4.44499ZM79.3886 3.209V2.709H78.8886V3.209H79.3886ZM111.628 3.209H112.128V2.709H111.628V3.209ZM111.628 4.44499L111.643 4.94474L112.128 4.92945V4.44499H111.628ZM100.813 72.94H100.313V73.44H100.813V72.94ZM136.348 52.443L136.386 51.9445L136.01 51.9156L135.879 52.2688L136.348 52.443ZM137.687 52.546L138.186 52.5689L138.208 52.0847L137.725 52.0475L137.687 52.546ZM136.657 75V75.5H137.134L137.156 75.0229L136.657 75ZM79.8886 75V73.661H78.8886V75H79.8886ZM79.4055 74.1607C84.0101 74.0055 87.0456 73.2822 88.9347 71.9447C90.874 70.5716 91.5276 68.612 91.5276 66.245H90.5276C90.5276 68.41 89.9452 70.0039 88.3568 71.1286C86.7181 72.2888 83.9342 73.0075 79.3718 73.1613L79.4055 74.1607ZM91.5276 66.245V11.861H90.5276V66.245H91.5276ZM91.5276 11.861C91.5276 9.54249 90.8723 7.58598 88.9367 6.20133C87.0483 4.8505 84.0133 4.1006 79.4055 3.94528L79.3718 4.94471C83.931 5.09839 86.7155 5.84199 88.3549 7.01466C89.9469 8.15352 90.5276 9.7505 90.5276 11.861H91.5276ZM79.8886 4.44499V3.209H78.8886V4.44499H79.8886ZM79.3886 3.709H111.628V2.709H79.3886V3.709ZM111.128 3.209V4.44499H112.128V3.209H111.128ZM111.612 3.94524C106.718 4.09979 103.854 4.79132 102.23 6.14691C100.56 7.54134 100.313 9.53639 100.313 11.861H101.313C101.313 9.5506 101.58 7.99215 102.871 6.91458C104.209 5.79817 106.752 5.0992 111.643 4.94474L111.612 3.94524ZM100.313 11.861V72.94H101.313V11.861H100.313ZM100.813 73.44H110.289V72.44H100.813V73.44ZM110.289 73.44C117.136 73.44 122.286 72.3258 126.48 69.114C130.662 65.9116 133.819 60.6796 136.816 52.6172L135.879 52.2688C132.903 60.2744 129.828 65.2909 125.872 68.32C121.929 71.3397 117.037 72.44 110.289 72.44V73.44ZM136.309 52.9415L137.648 53.0445L137.725 52.0475L136.386 51.9445L136.309 52.9415ZM137.187 52.5231L136.157 74.9771L137.156 75.0229L138.186 52.5689L137.187 52.5231ZM136.657 74.5H79.3886V75.5H136.657V74.5ZM193.364 64.906L192.892 65.0724L192.893 65.0737L193.364 64.906ZM187.184 47.396L187.655 47.2296L187.538 46.896H187.184V47.396ZM162.361 47.396V46.896H162.018L161.894 47.2161L162.361 47.396ZM159.065 55.945L158.598 55.7651L158.598 55.7658L159.065 55.945ZM165.142 73.661H165.642V73.2367L165.223 73.1677L165.142 73.661ZM165.142 75V75.5H165.642V75H165.142ZM141.246 75H140.746V75.5H141.246V75ZM141.246 73.661L141.112 73.1791L140.746 73.2806V73.661H141.246ZM156.078 56.666L156.542 56.8524L156.542 56.8514L156.078 56.666ZM178.326 0.942996V0.442996H177.987L177.861 0.757596L178.326 0.942996ZM180.592 0.942996L181.061 0.769999L180.94 0.442996H180.592V0.942996ZM203.458 62.949L202.989 63.122L202.989 63.1239L203.458 62.949ZM215.921 73.661H216.421V73.221L215.984 73.1651L215.921 73.661ZM215.921 75V75.5H216.421V75H215.921ZM184.506 75H184.006V75.5H184.506V75ZM184.506 73.661L184.485 73.1614L184.006 73.1816V73.661H184.506ZM163.185 45.336L162.719 45.1548L162.454 45.836H163.185V45.336ZM186.463 45.336V45.836H187.167L186.935 45.1713L186.463 45.336ZM175.648 14.333L176.12 14.1683L176.003 13.833H175.648V14.333ZM175.236 14.333V13.833H174.894L174.77 14.1518L175.236 14.333ZM193.835 64.7396L187.655 47.2296L186.712 47.5624L192.892 65.0724L193.835 64.7396ZM187.184 46.896H162.361V47.896H187.184V46.896ZM161.894 47.2161L158.598 55.7651L159.531 56.1249L162.827 47.5759L161.894 47.2161ZM158.598 55.7658C157.358 58.9951 156.521 61.6485 156.119 63.8371C155.717 66.0221 155.738 67.7915 156.265 69.2243C157.338 72.1436 160.384 73.3835 165.06 74.1543L165.223 73.1677C160.526 72.3935 158.062 71.2129 157.204 68.8792C156.765 67.6855 156.716 66.1202 157.102 64.0179C157.488 61.9191 158.3 59.3324 159.532 56.1242L158.598 55.7658ZM164.642 73.661V75H165.642V73.661H164.642ZM165.142 74.5H141.246V75.5H165.142V74.5ZM141.746 75V73.661H140.746V75H141.746ZM141.379 74.1429C144.798 73.1962 147.438 71.7888 149.808 69.1267C152.159 66.485 154.219 62.6336 156.542 56.8524L155.614 56.4796C153.302 62.2344 151.293 65.9535 149.061 68.4618C146.847 70.9497 144.389 72.2718 141.112 73.1791L141.379 74.1429ZM156.542 56.8514L178.79 1.1284L177.861 0.757596L155.613 56.4806L156.542 56.8514ZM178.326 1.443H180.592V0.442996H178.326V1.443ZM180.123 1.11599L202.989 63.122L203.927 62.776L181.061 0.769999L180.123 1.11599ZM202.989 63.1239C204.426 66.9726 205.568 69.5094 207.423 71.1865C209.294 72.8789 211.822 73.6396 215.857 74.1569L215.984 73.1651C211.985 72.6524 209.724 71.9196 208.093 70.4448C206.446 68.9546 205.373 66.6504 203.926 62.7741L202.989 63.1239ZM215.421 73.661V75H216.421V73.661H215.421ZM215.921 74.5H184.506V75.5H215.921V74.5ZM185.006 75V73.661H184.006V75H185.006ZM184.527 74.1606C186.986 74.057 188.937 73.8362 190.444 73.4588C191.946 73.0825 193.059 72.5376 193.784 71.7456C194.524 70.9371 194.807 69.932 194.768 68.7633C194.73 67.6112 194.381 66.2716 193.835 64.7383L192.893 65.0737C193.428 66.5789 193.736 67.8014 193.769 68.7962C193.801 69.7744 193.568 70.501 193.047 71.0702C192.51 71.6557 191.615 72.1345 190.201 72.4888C188.791 72.842 186.918 73.059 184.485 73.1614L184.527 74.1606ZM163.185 45.836H186.463V44.836H163.185V45.836ZM186.935 45.1713L176.12 14.1683L175.176 14.4977L185.991 45.5007L186.935 45.1713ZM175.648 13.833H175.236V14.833H175.648V13.833ZM174.77 14.1518L162.719 45.1548L163.651 45.5171L175.702 14.5141L174.77 14.1518ZM213.334 4.44499H212.834V4.92842L213.317 4.94471L213.334 4.44499ZM213.334 3.209V2.709H212.834V3.209H213.334ZM245.573 3.209H246.073V2.709H245.573V3.209ZM245.573 4.44499L245.589 4.94474L246.073 4.92929V4.44499H245.573ZM269.984 68.511L269.63 68.1574L269.63 68.1574L269.984 68.511ZM262.156 4.44499H261.656V4.87622L262.082 4.93957L262.156 4.44499ZM262.156 3.209V2.709H261.656V3.209H262.156ZM289.863 3.209H290.363V2.709H289.863V3.209ZM289.863 4.44499L289.952 4.93701L290.363 4.86268V4.44499H289.863ZM251.959 76.251C243.528 76.251 236.906 74.3341 232.401 70.7958C227.914 67.2708 225.473 62.0932 225.473 55.43H224.473C224.473 62.3628 227.027 67.8457 231.784 71.5822C236.524 75.3054 243.394 77.251 251.959 77.251V76.251ZM225.473 55.43V11.861H224.473V55.43H225.473ZM225.473 11.861C225.473 9.54249 224.817 7.58598 222.882 6.20133C220.993 4.8505 217.958 4.1006 213.351 3.94528L213.317 4.94471C217.876 5.09839 220.661 5.84199 222.3 7.01466C223.892 8.15352 224.473 9.7505 224.473 11.861H225.473ZM213.834 4.44499V3.209H212.834V4.44499H213.834ZM213.334 3.709H245.573V2.709H213.334V3.709ZM245.073 3.209V4.44499H246.073V3.209H245.073ZM245.557 3.94525C240.713 4.09985 237.851 4.79193 236.216 6.14555C234.533 7.53789 234.258 9.52956 234.258 11.861H235.258C235.258 9.55743 235.549 7.9956 236.853 6.91594C238.205 5.79756 240.751 5.09914 245.589 4.94474L245.557 3.94525ZM234.258 11.861V52.649H235.258V11.861H234.258ZM234.258 52.649C234.258 60.7977 236.876 66.1355 241.054 69.4191C245.209 72.6849 250.824 73.852 256.697 73.852V72.852C250.93 72.852 245.576 71.7016 241.672 68.6329C237.79 65.582 235.258 60.5683 235.258 52.649H234.258ZM256.697 73.852C262.042 73.852 266.923 72.2793 270.337 68.8646L269.63 68.1574C266.453 71.3347 261.857 72.852 256.697 72.852V73.852ZM270.337 68.8646C274.055 65.1465 276.252 59.8586 276.252 52.134H275.252C275.252 59.6534 273.122 64.6655 269.63 68.1574L270.337 68.8646ZM276.252 52.134V20.101H275.252V52.134H276.252ZM276.252 20.101C276.252 15.07 275.452 11.3923 273.236 8.78215C271.019 6.17067 267.471 4.72887 262.229 3.95042L262.082 4.93957C267.244 5.70612 270.493 7.09682 272.474 9.42934C274.455 11.7632 275.252 15.1409 275.252 20.101H276.252ZM262.656 4.44499V3.209H261.656V4.44499H262.656ZM262.156 3.709H289.863V2.709H262.156V3.709ZM289.363 3.209V4.44499H290.363V3.209H289.363ZM289.774 3.95298C284.89 4.8362 281.816 6.28658 280.002 8.89772C278.206 11.4831 277.724 15.1028 277.724 20.101H278.724C278.724 15.1081 279.22 11.7754 280.823 9.46827C282.408 7.18691 285.153 5.80479 289.952 4.93701L289.774 3.95298ZM277.724 20.101V53.267H278.724V20.101H277.724ZM277.724 53.267C277.724 60.0165 275.696 65.744 271.504 69.7862C267.31 73.8298 260.883 76.251 251.959 76.251V77.251C261.059 77.251 267.765 74.7797 272.198 70.5061C276.632 66.231 278.724 60.2165 278.724 53.267H277.724ZM296.799 75H296.299V75.5H296.799V75ZM296.799 73.661L296.782 73.1613L296.299 73.1776V73.661H296.799ZM296.799 4.44499H296.299V4.92842L296.782 4.94471L296.799 4.44499ZM296.799 3.209V2.709H296.299V3.209H296.799ZM318.223 72.94H317.723V73.44H318.223V72.94ZM318.223 5.269V4.769H317.723V5.269H318.223ZM297.299 75V73.661H296.299V75H297.299ZM296.816 74.1607C301.421 74.0055 304.456 73.2822 306.345 71.9447C308.284 70.5716 308.938 68.612 308.938 66.245H307.938C307.938 68.41 307.356 70.0039 305.767 71.1286C304.129 72.2888 301.345 73.0075 296.782 73.1613L296.816 74.1607ZM308.938 66.245V11.861H307.938V66.245H308.938ZM308.938 11.861C308.938 9.54249 308.283 7.58598 306.347 6.20133C304.459 4.8505 301.424 4.1006 296.816 3.94528L296.782 4.94471C301.341 5.09839 304.126 5.84199 305.765 7.01466C307.357 8.15352 307.938 9.7505 307.938 11.861H308.938ZM297.299 4.44499V3.209H296.299V4.44499H297.299ZM296.799 3.709H327.802V2.709H296.799V3.709ZM327.802 3.709C340.319 3.709 349.868 7.46218 356.284 13.5874C362.7 19.7121 366.03 28.2524 366.03 37.92H367.03C367.03 28.0176 363.614 19.2024 356.974 12.8641C350.336 6.52632 340.52 2.709 327.802 2.709V3.709ZM366.03 37.92C366.03 47.1924 363.1 56.3368 357.003 63.1565C350.915 69.9666 341.631 74.5 328.832 74.5V75.5C341.886 75.5 351.452 70.8664 357.749 63.823C364.037 56.7892 367.03 47.3936 367.03 37.92H366.03ZM328.832 74.5H296.799V75.5H328.832V74.5ZM318.223 73.44H325.536V72.44H318.223V73.44ZM325.536 73.44C336.845 73.44 344.432 71.4843 349.153 66.0315C353.854 60.6027 355.597 51.8323 355.597 38.538H354.597C354.597 51.8177 352.838 60.2483 348.397 65.377C343.978 70.4817 336.785 72.44 325.536 72.44V73.44ZM355.597 38.538C355.597 25.0136 353.228 16.5256 348.298 11.4358C343.36 6.33838 335.968 4.769 326.257 4.769V5.769C335.91 5.769 342.939 7.34111 347.579 12.1316C352.228 16.9299 354.597 25.0764 354.597 38.538H355.597ZM326.257 4.769H318.223V5.769H326.257V4.769ZM317.723 5.269V72.94H318.723V5.269H317.723ZM377.532 75H377.032V75.5H377.532V75ZM377.532 73.661L377.516 73.1612L377.032 73.1765V73.661H377.532ZM377.532 4.44499H377.032V4.92945L377.516 4.94474L377.532 4.44499ZM377.532 3.209V2.709H377.032V3.209H377.532ZM411.11 3.209H411.61V2.709H411.11V3.209ZM411.11 4.44499L411.126 4.94474L411.61 4.92945V4.44499H411.11ZM411.11 73.661H411.61V73.1765L411.126 73.1612L411.11 73.661ZM411.11 75V75.5H411.61V75H411.11ZM378.032 75V73.661H377.032V75H378.032ZM377.548 74.1608C382.455 74.0058 385.572 73.2843 387.464 71.9447C389.413 70.5649 389.98 68.5958 389.98 66.245H388.98C388.98 68.4262 388.465 70.0106 386.886 71.1286C385.251 72.2867 382.394 73.0072 377.516 73.1612L377.548 74.1608ZM389.98 66.245V11.861H388.98V66.245H389.98ZM389.98 11.861C389.98 9.5587 389.411 7.59284 387.466 6.20133C385.575 4.84827 382.458 4.10031 377.548 3.94524L377.516 4.94474C382.39 5.09867 385.248 5.84423 386.884 7.01466C388.467 8.14666 388.98 9.73429 388.98 11.861H389.98ZM378.032 4.44499V3.209H377.032V4.44499H378.032ZM377.532 3.709H411.11V2.709H377.532V3.709ZM410.61 3.209V4.44499H411.61V3.209H410.61ZM411.094 3.94524C406.183 4.10031 403.067 4.84827 401.176 6.20133C399.23 7.59284 398.662 9.5587 398.662 11.861H399.662C399.662 9.73429 400.175 8.14666 401.757 7.01466C403.394 5.84423 406.251 5.09867 411.126 4.94474L411.094 3.94524ZM398.662 11.861V66.245H399.662V11.861H398.662ZM398.662 66.245C398.662 68.5958 399.229 70.5649 401.177 71.9447C403.07 73.2843 406.187 74.0058 411.094 74.1608L411.126 73.1612C406.248 73.0072 403.391 72.2867 401.755 71.1286C400.176 70.0106 399.662 68.4262 399.662 66.245H398.662ZM410.61 73.661V75H411.61V73.661H410.61ZM411.11 74.5H377.532V75.5H411.11V74.5ZM466.648 64.906L466.176 65.0724L466.177 65.0737L466.648 64.906ZM460.468 47.396L460.939 47.2296L460.821 46.896H460.468V47.396ZM435.645 47.396V46.896H435.302L435.178 47.2161L435.645 47.396ZM432.349 55.945L431.882 55.7651L431.882 55.7658L432.349 55.945ZM438.426 73.661H438.926V73.2367L438.507 73.1677L438.426 73.661ZM438.426 75V75.5H438.926V75H438.426ZM414.53 75H414.03V75.5H414.53V75ZM414.53 73.661L414.396 73.1791L414.03 73.2806V73.661H414.53ZM429.362 56.666L429.826 56.8524L429.826 56.8514L429.362 56.666ZM451.61 0.942996V0.442996H451.271L451.145 0.757596L451.61 0.942996ZM453.876 0.942996L454.345 0.769999L454.224 0.442996H453.876V0.942996ZM476.742 62.949L476.273 63.122L476.273 63.1239L476.742 62.949ZM489.205 73.661H489.705V73.221L489.268 73.1651L489.205 73.661ZM489.205 75V75.5H489.705V75H489.205ZM457.79 75H457.29V75.5H457.79V75ZM457.79 73.661L457.769 73.1614L457.29 73.1816V73.661H457.79ZM436.469 45.336L436.003 45.1548L435.738 45.836H436.469V45.336ZM459.747 45.336V45.836H460.451L460.219 45.1713L459.747 45.336ZM448.932 14.333L449.404 14.1683L449.287 13.833H448.932V14.333ZM448.52 14.333V13.833H448.178L448.054 14.1518L448.52 14.333ZM467.119 64.7396L460.939 47.2296L459.996 47.5624L466.176 65.0724L467.119 64.7396ZM460.468 46.896H435.645V47.896H460.468V46.896ZM435.178 47.2161L431.882 55.7651L432.815 56.1249L436.111 47.5759L435.178 47.2161ZM431.882 55.7658C430.642 58.9951 429.805 61.6485 429.403 63.8371C429.001 66.0221 429.022 67.7915 429.549 69.2243C430.622 72.1436 433.668 73.3835 438.344 74.1543L438.507 73.1677C433.81 72.3935 431.346 71.2129 430.488 68.8792C430.049 67.6855 429.999 66.1202 430.386 64.0179C430.772 61.9191 431.584 59.3324 432.815 56.1242L431.882 55.7658ZM437.926 73.661V75H438.926V73.661H437.926ZM438.426 74.5H414.53V75.5H438.426V74.5ZM415.03 75V73.661H414.03V75H415.03ZM414.663 74.1429C418.082 73.1962 420.722 71.7888 423.092 69.1267C425.443 66.485 427.503 62.6336 429.826 56.8524L428.898 56.4796C426.586 62.2344 424.577 65.9535 422.345 68.4618C420.13 70.9497 417.673 72.2718 414.396 73.1791L414.663 74.1429ZM429.826 56.8514L452.074 1.1284L451.145 0.757596L428.897 56.4806L429.826 56.8514ZM451.61 1.443H453.876V0.442996H451.61V1.443ZM453.407 1.11599L476.273 63.122L477.211 62.776L454.345 0.769999L453.407 1.11599ZM476.273 63.1239C477.71 66.9726 478.852 69.5094 480.707 71.1865C482.578 72.8789 485.106 73.6396 489.141 74.1569L489.268 73.1651C485.269 72.6524 483.008 71.9196 481.377 70.4448C479.73 68.9546 478.657 66.6504 477.21 62.7741L476.273 63.1239ZM488.705 73.661V75H489.705V73.661H488.705ZM489.205 74.5H457.79V75.5H489.205V74.5ZM458.29 75V73.661H457.29V75H458.29ZM457.811 74.1606C460.27 74.057 462.221 73.8362 463.727 73.4588C465.229 73.0825 466.342 72.5376 467.068 71.7456C467.808 70.9371 468.09 69.932 468.052 68.7633C468.014 67.6112 467.664 66.2716 467.119 64.7383L466.177 65.0737C466.712 66.5789 467.02 67.8014 467.052 68.7962C467.085 69.7744 466.852 70.501 466.33 71.0702C465.794 71.6557 464.899 72.1345 463.484 72.4888C462.075 72.842 460.202 73.059 457.769 73.1614L457.811 74.1606ZM436.469 45.836H459.747V44.836H436.469V45.836ZM460.219 45.1713L449.404 14.1683L448.46 14.4977L459.275 45.5007L460.219 45.1713ZM448.932 13.833H448.52V14.833H448.932V13.833ZM448.054 14.1518L436.003 45.1548L436.935 45.5171L448.986 14.5141L448.054 14.1518ZM548.483 76.251C530.852 76.251 514.684 61.6581 514.684 39.259H513.684C513.684 62.1799 530.27 77.251 548.483 77.251V76.251ZM514.684 39.259C514.684 17.0633 531.369 1.958 548.483 1.958V0.957995C530.782 0.957995 513.684 16.5467 513.684 39.259H514.684ZM548.483 1.958C566.012 1.958 582.282 16.5519 582.282 38.95H583.282C583.282 16.0281 566.592 0.957995 548.483 0.957995V1.958ZM582.282 38.95C582.282 61.1447 565.494 76.251 548.483 76.251V77.251C566.08 77.251 583.282 61.6633 583.282 38.95H582.282ZM548.895 75.294C555.597 75.294 561.384 73.2705 565.47 67.6594C569.529 62.0852 571.849 53.0462 571.849 39.156H570.849C570.849 52.9728 568.534 61.7528 564.662 67.0708C560.816 72.352 555.377 74.294 548.895 74.294V75.294ZM571.849 39.156C571.849 25.1564 569.321 16.0884 565.037 10.5135C560.731 4.909 554.716 2.91499 547.968 2.91499V3.91499C554.507 3.91499 560.182 5.83499 564.244 11.1228C568.33 16.4401 570.849 25.2426 570.849 39.156H571.849ZM547.968 2.91499C541.266 2.91499 535.503 4.9388 531.443 10.5508C527.411 16.1251 525.117 25.1637 525.117 39.053H526.117C526.117 25.2353 528.406 16.4549 532.253 11.1369C536.073 5.85669 541.486 3.91499 547.968 3.91499V2.91499ZM525.117 39.053C525.117 53.0527 527.645 62.1203 531.915 67.6949C536.208 73.2993 542.197 75.294 548.895 75.294V74.294C542.409 74.294 536.759 72.3747 532.709 67.0868C528.636 61.7692 526.117 52.9663 526.117 39.053H525.117ZM593.165 75H592.665V75.5H593.165V75ZM593.165 73.661L593.149 73.1613L592.665 73.1776V73.661H593.165ZM593.165 4.44499H592.665V4.92842L593.149 4.94471L593.165 4.44499ZM593.165 3.209V2.709H592.665V3.209H593.165ZM614.589 72.94H614.089V73.44H614.589V72.94ZM614.589 5.269V4.769H614.089V5.269H614.589ZM593.665 75V73.661H592.665V75H593.665ZM593.182 74.1607C597.787 74.0055 600.822 73.2822 602.712 71.9447C604.651 70.5716 605.304 68.612 605.304 66.245H604.304C604.304 68.41 603.722 70.0039 602.134 71.1286C600.495 72.2888 597.711 73.0075 593.149 73.1613L593.182 74.1607ZM605.304 66.245V11.861H604.304V66.245H605.304ZM605.304 11.861C605.304 9.54249 604.649 7.58598 602.714 6.20133C600.825 4.8505 597.79 4.1006 593.182 3.94528L593.149 4.94471C597.708 5.09839 600.492 5.84199 602.132 7.01466C603.724 8.15352 604.304 9.7505 604.304 11.861H605.304ZM593.665 4.44499V3.209H592.665V4.44499H593.665ZM593.165 3.709H624.168V2.709H593.165V3.709ZM624.168 3.709C636.685 3.709 646.234 7.46218 652.65 13.5874C659.066 19.7121 662.396 28.2524 662.396 37.92H663.396C663.396 28.0176 659.98 19.2024 653.341 12.8641C646.702 6.52632 636.887 2.709 624.168 2.709V3.709ZM662.396 37.92C662.396 47.1924 659.467 56.3368 653.37 63.1565C647.281 69.9666 637.997 74.5 625.198 74.5V75.5C638.253 75.5 647.818 70.8664 654.115 63.823C660.404 56.7892 663.396 47.3936 663.396 37.92H662.396ZM625.198 74.5H593.165V75.5H625.198V74.5ZM614.589 73.44H621.902V72.44H614.589V73.44ZM621.902 73.44C633.211 73.44 640.799 71.4843 645.52 66.0315C650.22 60.6027 651.963 51.8323 651.963 38.538H650.963C650.963 51.8177 649.205 60.2483 644.764 65.377C640.344 70.4817 633.151 72.44 621.902 72.44V73.44ZM651.963 38.538C651.963 25.0136 649.595 16.5256 644.664 11.4358C639.726 6.33838 632.335 4.769 622.623 4.769V5.769C632.276 5.769 639.305 7.34111 643.946 12.1316C648.594 16.9299 650.963 25.0764 650.963 38.538H651.963ZM622.623 4.769H614.589V5.769H622.623V4.769ZM614.089 5.269V72.94H615.089V5.269H614.089ZM673.28 75H672.78V75.5H673.28V75ZM673.28 73.661L673.263 73.1613L672.78 73.1776V73.661H673.28ZM673.28 4.44499H672.78V4.92842L673.263 4.94471L673.28 4.44499ZM673.28 3.209V2.709H672.78V3.209H673.28ZM731.578 3.209L732.078 3.20205L732.071 2.709H731.578V3.209ZM731.887 25.457L731.926 25.9555L732.394 25.9195L732.387 25.4501L731.887 25.457ZM730.548 25.56L730.08 25.7352L730.212 26.0874L730.587 26.0585L730.548 25.56ZM694.704 5.269V4.769H694.204V5.269H694.704ZM694.704 36.684H694.204V37.184H694.704V36.684ZM716.952 22.47V21.97H716.56L716.467 22.3508L716.952 22.47ZM718.291 22.47H718.791V21.97H718.291V22.47ZM718.291 52.958V53.458H718.791V52.958H718.291ZM716.952 52.958L716.467 53.0772L716.56 53.458H716.952V52.958ZM694.704 38.744V38.244H694.204V38.744H694.704ZM694.704 72.94H694.204V73.44H694.704V72.94ZM733.741 51.413L733.78 50.9145L733.406 50.8857L733.274 51.236L733.741 51.413ZM735.08 51.516L735.58 51.527L735.59 51.0538L735.119 51.0175L735.08 51.516ZM734.565 75V75.5H735.054L735.065 75.011L734.565 75ZM673.78 75V73.661H672.78V75H673.78ZM673.297 74.1607C677.902 74.0055 680.937 73.2822 682.826 71.9447C684.766 70.5716 685.419 68.612 685.419 66.245H684.419C684.419 68.41 683.837 70.0039 682.248 71.1286C680.61 72.2888 677.826 73.0075 673.263 73.1613L673.297 74.1607ZM685.419 66.245V11.861H684.419V66.245H685.419ZM685.419 11.861C685.419 9.54249 684.764 7.58598 682.828 6.20133C680.94 4.8505 677.905 4.1006 673.297 3.94528L673.263 4.94471C677.823 5.09839 680.607 5.84199 682.246 7.01466C683.838 8.15352 684.419 9.7505 684.419 11.861H685.419ZM673.78 4.44499V3.209H672.78V4.44499H673.78ZM673.28 3.709H731.578V2.709H673.28V3.709ZM731.078 3.21594L731.387 25.4639L732.387 25.4501L732.078 3.20205L731.078 3.21594ZM731.849 24.9585L730.51 25.0615L730.587 26.0585L731.926 25.9555L731.849 24.9585ZM731.016 25.3848C728.488 18.6255 725.882 13.4652 722.363 9.99841C718.818 6.50616 714.384 4.769 708.3 4.769V5.769C714.164 5.769 718.331 7.43083 721.661 10.7108C725.017 14.0163 727.561 19.0015 730.08 25.7352L731.016 25.3848ZM708.3 4.769H694.704V5.769H708.3V4.769ZM694.204 5.269V36.684H695.204V5.269H694.204ZM694.704 37.184H701.193V36.184H694.704V37.184ZM701.193 37.184C705.566 37.184 708.955 36.4571 711.598 34.2065C714.23 31.9662 716.039 28.2869 717.438 22.5892L716.467 22.3508C715.084 27.9831 713.34 31.4108 710.95 33.445C708.573 35.4689 705.472 36.184 701.193 36.184V37.184ZM716.952 22.97H718.291V21.97H716.952V22.97ZM717.791 22.47V52.958H718.791V22.47H717.791ZM718.291 52.458H716.952V53.458H718.291V52.458ZM717.438 52.8388C716.039 47.1411 714.23 43.4618 711.598 41.2215C708.955 38.9709 705.566 38.244 701.193 38.244V39.244C705.472 39.244 708.573 39.9591 710.95 41.983C713.34 44.0172 715.084 47.4449 716.467 53.0772L717.438 52.8388ZM701.193 38.244H694.704V39.244H701.193V38.244ZM694.204 38.744V72.94H695.204V38.744H694.204ZM694.704 73.44H708.3V72.44H694.704V73.44ZM708.3 73.44C715.398 73.44 720.524 71.6354 724.563 67.9535C728.581 64.2919 731.473 58.8175 734.209 51.59L733.274 51.236C730.551 58.4285 727.726 63.7176 723.89 67.2145C720.075 70.6911 715.21 72.44 708.3 72.44V73.44ZM733.703 51.9115L735.042 52.0145L735.119 51.0175L733.78 50.9145L733.703 51.9115ZM734.58 51.505L734.065 74.989L735.065 75.011L735.58 51.527L734.58 51.505ZM734.565 74.5H673.28V75.5H734.565V74.5ZM766.973 38.023H766.473V38.523H766.973V38.023ZM766.973 5.269V4.769H766.473V5.269H766.973ZM766.973 40.083V39.583H766.473V40.083H766.973ZM778.303 73.661H778.803V73.1767L778.319 73.1613L778.303 73.661ZM778.303 75V75.5H778.803V75H778.303ZM745.549 75H745.049V75.5H745.549V75ZM745.549 73.661L745.532 73.1613L745.049 73.1776V73.661H745.549ZM745.549 4.44499H745.049V4.92842L745.532 4.94471L745.549 4.44499ZM745.549 3.209V2.709H745.049V3.209H745.549ZM783.556 38.95L783.485 38.4552L783.056 38.5172V38.95H783.556ZM783.556 39.259H783.056V39.7359L783.533 39.7584L783.556 39.259ZM803.744 57.799L804.239 57.7266L804.239 57.7251L803.744 57.799ZM804.362 62.022L803.867 62.0944L803.869 62.1059L804.362 62.022ZM816.928 73.043H817.428V72.543H816.928V73.043ZM816.928 74.176L817.068 74.6562L817.428 74.5515V74.176H816.928ZM793.65 62.331L793.153 62.3885L793.154 62.3904L793.65 62.331ZM792.517 52.546L793.014 52.4885L793.014 52.4864L792.517 52.546ZM766.973 38.523H776.758V37.523H766.973V38.523ZM776.758 38.523C784.137 38.523 788.692 36.783 791.379 33.6216C794.05 30.4783 794.768 26.0461 794.768 20.925H793.768C793.768 26.0009 793.044 30.1177 790.617 32.9741C788.205 35.8125 784.005 37.523 776.758 37.523V38.523ZM794.768 20.925C794.768 16.1195 793.671 12.0416 790.605 9.17807C787.548 6.32317 782.633 4.769 775.213 4.769V5.769C782.523 5.769 787.134 7.30482 789.923 9.90892C792.702 12.5044 793.768 16.2545 793.768 20.925H794.768ZM775.213 4.769H766.973V5.769H775.213V4.769ZM766.473 5.269V38.023H767.473V5.269H766.473ZM766.473 40.083V66.245H767.473V40.083H766.473ZM766.473 66.245C766.473 68.6594 766.891 70.6441 768.706 72.0131C770.465 73.3388 773.441 74.0061 778.287 74.1607L778.319 73.1613C773.483 73.0069 770.795 72.3352 769.308 71.2146C767.88 70.1374 767.473 68.5686 767.473 66.245H766.473ZM777.803 73.661V75H778.803V73.661H777.803ZM778.303 74.5H745.549V75.5H778.303V74.5ZM746.049 75V73.661H745.049V75H746.049ZM745.566 74.1607C750.171 74.0055 753.206 73.2822 755.095 71.9447C757.035 70.5716 757.688 68.612 757.688 66.245H756.688C756.688 68.41 756.106 70.0039 754.517 71.1286C752.879 72.2888 750.095 73.0075 745.532 73.1613L745.566 74.1607ZM757.688 66.245V11.861H756.688V66.245H757.688ZM757.688 11.861C757.688 9.54249 757.033 7.58598 755.097 6.20133C753.209 4.8505 750.174 4.1006 745.566 3.94528L745.532 4.94471C750.091 5.09839 752.876 5.84199 754.515 7.01466C756.107 8.15352 756.688 9.7505 756.688 11.861H757.688ZM746.049 4.44499V3.209H745.049V4.44499H746.049ZM745.549 3.709H775.934V2.709H745.549V3.709ZM775.934 3.709C786.393 3.709 793.645 5.58241 798.268 8.62226C802.863 11.644 804.892 15.8375 804.892 20.616H805.892C805.892 15.5065 803.698 10.9965 798.817 7.78673C793.964 4.59509 786.487 2.709 775.934 2.709V3.709ZM804.892 20.616C804.892 24.9698 803.397 28.8473 800.009 31.9235C796.607 35.0127 791.256 37.3303 783.485 38.4552L783.628 39.4448C791.512 38.3037 797.079 35.9348 800.681 32.6638C804.298 29.3797 805.892 25.2232 805.892 20.616H804.892ZM783.056 38.95V39.259H784.056V38.95H783.056ZM783.533 39.7584C791.089 40.1159 795.572 41.9746 798.382 45.0064C801.207 48.0545 802.428 52.3751 803.25 57.8729L804.239 57.7251C803.413 52.2019 802.161 47.613 799.115 44.3266C796.054 41.0239 791.267 39.1231 783.58 38.7596L783.533 39.7584ZM803.249 57.8714L803.867 62.0944L804.857 61.9496L804.239 57.7266L803.249 57.8714ZM803.869 62.1059C804.282 64.5326 804.707 66.4681 805.262 67.999C805.819 69.5349 806.518 70.6948 807.499 71.5417C809.45 73.226 812.374 73.543 816.928 73.543V72.543C812.316 72.543 809.781 72.1905 808.152 70.7848C807.344 70.0867 806.723 69.0965 806.202 67.6582C805.679 66.215 805.266 64.3524 804.855 61.9381L803.869 62.1059ZM816.428 73.043V74.176H817.428V73.043H816.428ZM816.789 73.6958C813.644 74.6087 809.881 75.118 806.422 75.118V76.118C809.968 76.118 813.826 75.5973 817.068 74.6562L816.789 73.6958ZM806.422 75.118C801.683 75.118 798.958 74.1729 797.247 72.2004C795.504 70.1918 794.714 67.0171 794.147 62.2716L793.154 62.3904C793.719 67.1209 794.526 70.5897 796.491 72.8556C798.488 75.1576 801.582 76.118 806.422 76.118V75.118ZM794.147 62.2735L793.014 52.4885L792.02 52.6035L793.153 62.3885L794.147 62.2735ZM793.014 52.4864C792.395 47.3345 791.378 44.0211 788.817 42.0554C786.284 40.1107 782.356 39.583 776.243 39.583V40.583C782.388 40.583 785.978 41.1368 788.209 42.8486C790.411 44.5394 791.403 47.4575 792.021 52.6056L793.014 52.4864ZM776.243 39.583H766.973V40.583H776.243V39.583ZM820.247 75H819.747V75.5H820.247V75ZM820.247 73.661L820.231 73.1612L819.747 73.1765V73.661H820.247ZM820.247 4.44499H819.747V4.92945L820.231 4.94474L820.247 4.44499ZM820.247 3.209V2.709H819.747V3.209H820.247ZM853.825 3.209H854.325V2.709H853.825V3.209ZM853.825 4.44499L853.84 4.94474L854.325 4.92945V4.44499H853.825ZM853.825 73.661H854.325V73.1765L853.84 73.1612L853.825 73.661ZM853.825 75V75.5H854.325V75H853.825ZM820.747 75V73.661H819.747V75H820.747ZM820.262 74.1608C825.17 74.0058 828.287 73.2843 830.179 71.9447C832.128 70.5649 832.695 68.5958 832.695 66.245H831.695C831.695 68.4262 831.18 70.0106 829.601 71.1286C827.965 72.2867 825.108 73.0072 820.231 73.1612L820.262 74.1608ZM832.695 66.245V11.861H831.695V66.245H832.695ZM832.695 11.861C832.695 9.5587 832.126 7.59284 830.181 6.20133C828.289 4.84827 825.173 4.10031 820.262 3.94524L820.231 4.94474C825.105 5.09867 827.963 5.84423 829.599 7.01466C831.182 8.14666 831.695 9.73429 831.695 11.861H832.695ZM820.747 4.44499V3.209H819.747V4.44499H820.747ZM820.247 3.709H853.825V2.709H820.247V3.709ZM853.325 3.209V4.44499H854.325V3.209H853.325ZM853.809 3.94524C848.898 4.10031 845.782 4.84827 843.89 6.20133C841.945 7.59284 841.377 9.5587 841.377 11.861H842.377C842.377 9.73429 842.89 8.14666 844.472 7.01466C846.108 5.84423 848.966 5.09867 853.84 4.94474L853.809 3.94524ZM841.377 11.861V66.245H842.377V11.861H841.377ZM841.377 66.245C841.377 68.5958 841.944 70.5649 843.892 71.9447C845.784 73.2843 848.901 74.0058 853.809 74.1608L853.84 73.1612C848.963 73.0072 846.106 72.2867 844.47 71.1286C842.891 70.0106 842.377 68.4262 842.377 66.245H841.377ZM853.325 73.661V75H854.325V73.661H853.325ZM853.825 74.5H820.247V75.5H853.825V74.5ZM899.166 76.251C881.535 76.251 865.367 61.6581 865.367 39.259H864.367C864.367 62.1799 880.953 77.251 899.166 77.251V76.251ZM865.367 39.259C865.367 17.0633 882.052 1.958 899.166 1.958V0.957995C881.465 0.957995 864.367 16.5467 864.367 39.259H865.367ZM899.166 1.958C916.695 1.958 932.965 16.5519 932.965 38.95H933.965C933.965 16.0281 917.275 0.957995 899.166 0.957995V1.958ZM932.965 38.95C932.965 61.1447 916.177 76.251 899.166 76.251V77.251C916.762 77.251 933.965 61.6633 933.965 38.95H932.965ZM899.578 75.294C906.28 75.294 912.067 73.2705 916.153 67.6594C920.212 62.0852 922.532 53.0462 922.532 39.156H921.532C921.532 52.9728 919.217 61.7528 915.344 67.0708C911.499 72.352 906.06 74.294 899.578 74.294V75.294ZM922.532 39.156C922.532 25.1564 920.004 16.0884 915.72 10.5135C911.414 4.909 905.399 2.91499 898.651 2.91499V3.91499C905.189 3.91499 910.865 5.83499 914.927 11.1228C919.013 16.4401 921.532 25.2426 921.532 39.156H922.532ZM898.651 2.91499C891.948 2.91499 886.186 4.9388 882.126 10.5508C878.094 16.1251 875.8 25.1637 875.8 39.053H876.8C876.8 25.2353 879.089 16.4549 882.936 11.1369C886.756 5.85669 892.169 3.91499 898.651 3.91499V2.91499ZM875.8 39.053C875.8 53.0527 878.328 62.1203 882.598 67.6949C886.89 73.2993 892.88 75.294 899.578 75.294V74.294C893.092 74.294 887.442 72.3747 883.392 67.0868C879.319 61.7692 876.8 52.9663 876.8 39.053H875.8Z" fill="#A31236"/>
<path d="M124.96 167.168C124.96 176.32 123.611 184.944 120.912 193.04C118.213 201.019 114.283 208 109.12 213.984C104.075 219.851 97.856 224.485 90.464 227.888C83.072 231.291 74.6827 232.992 65.296 232.992C55.9093 232.992 47.4613 231.291 39.952 227.888C32.56 224.485 26.2827 219.851 21.12 213.984C16.0747 208 12.2027 201.019 9.504 193.04C6.80533 184.944 5.456 176.32 5.456 167.168C5.456 158.016 6.80533 149.451 9.504 141.472C12.2027 133.376 16.0747 126.395 21.12 120.528C26.2827 114.544 32.56 109.851 39.952 106.448C47.4613 103.045 55.9093 101.344 65.296 101.344C74.6827 101.344 83.072 103.045 90.464 106.448C97.856 109.851 104.075 114.544 109.12 120.528C114.283 126.395 118.213 133.376 120.912 141.472C123.611 149.451 124.96 158.016 124.96 167.168ZM13.2 167.168C13.2 175.264 14.3733 182.891 16.72 190.048C19.0667 197.205 22.4693 203.483 26.928 208.88C31.3867 214.16 36.8427 218.384 43.296 221.552C49.7493 224.72 57.0827 226.304 65.296 226.304C73.5093 226.304 80.784 224.72 87.12 221.552C93.5733 218.384 99.0293 214.16 103.488 208.88C107.947 203.483 111.349 197.205 113.696 190.048C116.043 182.891 117.216 175.264 117.216 167.168C117.216 159.072 116.043 151.445 113.696 144.288C111.349 137.131 107.947 130.912 103.488 125.632C99.0293 120.235 93.5733 115.952 87.12 112.784C80.784 109.616 73.5093 108.032 65.296 108.032C57.0827 108.032 49.7493 109.616 43.296 112.784C36.8427 115.952 31.3867 120.235 26.928 125.632C22.4693 130.912 19.0667 137.131 16.72 144.288C14.3733 151.445 13.2 159.072 13.2 167.168ZM225.317 140.24C225.082 134.843 223.909 130.149 221.797 126.16C219.802 122.171 217.045 118.827 213.525 116.128C210.005 113.429 205.781 111.435 200.853 110.144C196.042 108.736 190.762 108.032 185.013 108.032C181.493 108.032 177.68 108.443 173.573 109.264C169.584 110.085 165.829 111.552 162.309 113.664C158.906 115.659 156.09 118.416 153.861 121.936C151.632 125.339 150.517 129.621 150.517 134.784C150.517 139.829 151.749 143.936 154.213 147.104C156.677 150.272 159.904 152.853 163.893 154.848C167.882 156.725 172.458 158.251 177.621 159.424C182.784 160.597 188.005 161.712 193.285 162.768C198.682 163.824 203.904 165.115 208.949 166.64C214.112 168.048 218.688 170.043 222.677 172.624C226.784 175.088 230.069 178.373 232.533 182.48C234.997 186.469 236.229 191.515 236.229 197.616C236.229 204.187 234.821 209.701 232.005 214.16C229.189 218.619 225.61 222.256 221.269 225.072C217.045 227.888 212.293 229.883 207.013 231.056C201.85 232.347 196.864 232.992 192.053 232.992C184.661 232.992 177.738 232.171 171.285 230.528C164.832 229.003 159.2 226.48 154.389 222.96C149.578 219.323 145.765 214.688 142.949 209.056C140.25 203.424 138.96 196.56 139.077 188.464H146.821C146.469 195.387 147.466 201.253 149.813 206.064C152.16 210.757 155.386 214.629 159.493 217.68C163.717 220.731 168.645 222.96 174.277 224.368C179.909 225.659 185.834 226.304 192.053 226.304C195.808 226.304 199.797 225.835 204.021 224.896C208.362 223.957 212.293 222.373 215.813 220.144C219.45 217.915 222.442 214.981 224.789 211.344C227.253 207.707 228.485 203.131 228.485 197.616C228.485 192.336 227.253 188.053 224.789 184.768C222.325 181.365 219.04 178.667 214.933 176.672C210.944 174.56 206.368 172.917 201.205 171.744C196.16 170.453 190.938 169.28 185.541 168.224C180.261 167.168 175.04 165.936 169.877 164.528C164.714 163.12 160.138 161.243 156.149 158.896C152.16 156.432 148.933 153.323 146.469 149.568C144.005 145.696 142.773 140.768 142.773 134.784C142.773 128.8 144.005 123.696 146.469 119.472C149.05 115.131 152.336 111.669 156.325 109.088C160.432 106.389 165.008 104.453 170.053 103.28C175.098 101.989 180.085 101.344 185.013 101.344C191.584 101.344 197.685 102.107 203.317 103.632C209.066 105.04 214.053 107.328 218.277 110.496C222.618 113.547 226.08 117.536 228.661 122.464C231.242 127.392 232.709 133.317 233.061 140.24H225.317ZM238.415 111.024V104.336H334.687V111.024H290.335V230H282.591V111.024H238.415ZM344.993 104.336H429.473V111.024H352.737V161.36H424.897V168.048H352.737V223.312H430.353V230H344.993V104.336ZM559.109 167.168C559.109 176.32 557.76 184.944 555.061 193.04C552.363 201.019 548.432 208 543.269 213.984C538.224 219.851 532.005 224.485 524.613 227.888C517.221 231.291 508.832 232.992 499.445 232.992C490.059 232.992 481.611 231.291 474.101 227.888C466.709 224.485 460.432 219.851 455.269 213.984C450.224 208 446.352 201.019 443.653 193.04C440.955 184.944 439.605 176.32 439.605 167.168C439.605 158.016 440.955 149.451 443.653 141.472C446.352 133.376 450.224 126.395 455.269 120.528C460.432 114.544 466.709 109.851 474.101 106.448C481.611 103.045 490.059 101.344 499.445 101.344C508.832 101.344 517.221 103.045 524.613 106.448C532.005 109.851 538.224 114.544 543.269 120.528C548.432 126.395 552.363 133.376 555.061 141.472C557.76 149.451 559.109 158.016 559.109 167.168ZM447.349 167.168C447.349 175.264 448.523 182.891 450.869 190.048C453.216 197.205 456.619 203.483 461.077 208.88C465.536 214.16 470.992 218.384 477.445 221.552C483.899 224.72 491.232 226.304 499.445 226.304C507.659 226.304 514.933 224.72 521.269 221.552C527.723 218.384 533.179 214.16 537.637 208.88C542.096 203.483 545.499 197.205 547.845 190.048C550.192 182.891 551.365 175.264 551.365 167.168C551.365 159.072 550.192 151.445 547.845 144.288C545.499 137.131 542.096 130.912 537.637 125.632C533.179 120.235 527.723 115.952 521.269 112.784C514.933 109.616 507.659 108.032 499.445 108.032C491.232 108.032 483.899 109.616 477.445 112.784C470.992 115.952 465.536 120.235 461.077 125.632C456.619 130.912 453.216 137.131 450.869 144.288C448.523 151.445 447.349 159.072 447.349 167.168ZM577.45 104.336H630.954C634.474 104.336 638.346 104.747 642.57 105.568C646.912 106.389 650.901 108.091 654.538 110.672C658.293 113.136 661.402 116.715 663.866 121.408C666.33 125.984 667.562 132.027 667.562 139.536C667.562 150.565 664.16 159.072 657.354 165.056C650.549 171.04 640.81 174.032 628.138 174.032H585.194V230H577.45V104.336ZM585.194 167.344H629.37C635.002 167.344 639.754 166.523 643.626 164.88C647.616 163.12 650.784 160.891 653.13 158.192C655.477 155.493 657.178 152.501 658.234 149.216C659.29 145.931 659.818 142.645 659.818 139.36C659.818 137.013 659.466 134.256 658.762 131.088C658.058 127.803 656.65 124.693 654.538 121.76C652.426 118.709 649.434 116.187 645.562 114.192C641.808 112.08 636.762 111.024 630.426 111.024H585.194V167.344ZM707.788 104.336H716.236L765.868 230H757.596L741.756 189.696H681.564L665.548 230H657.276L707.788 104.336ZM739.292 183.008L712.364 111.904H712.012L684.028 183.008H739.292ZM749.262 111.024V104.336H845.534V111.024H801.182V230H793.438V111.024H749.262ZM879.402 104.336H887.85L937.482 230H929.21L913.37 189.696H853.178L837.162 230H828.89L879.402 104.336ZM910.906 183.008L883.978 111.904H883.626L855.642 183.008H910.906Z" fill="#A31236"/>
<path d="M120.912 193.04L121.386 193.2L121.386 193.198L120.912 193.04ZM109.12 213.984L108.741 213.657L108.741 213.658L109.12 213.984ZM90.464 227.888L90.2549 227.434L90.2549 227.434L90.464 227.888ZM39.952 227.888L39.7429 228.342L39.7456 228.343L39.952 227.888ZM21.12 213.984L20.7377 214.306L20.7446 214.314L21.12 213.984ZM9.504 193.04L9.02965 193.198L9.03036 193.2L9.504 193.04ZM9.504 141.472L9.97765 141.632L9.97834 141.63L9.504 141.472ZM21.12 120.528L20.7414 120.201L20.7409 120.202L21.12 120.528ZM39.952 106.448L39.7456 105.993L39.7429 105.994L39.952 106.448ZM90.464 106.448L90.2549 106.902L90.2549 106.902L90.464 106.448ZM109.12 120.528L108.738 120.85L108.745 120.858L109.12 120.528ZM120.912 141.472L120.438 141.63L120.438 141.632L120.912 141.472ZM16.72 190.048L17.1951 189.892L17.1951 189.892L16.72 190.048ZM26.928 208.88L26.5425 209.198L26.546 209.203L26.928 208.88ZM43.296 221.552L43.0757 222.001L43.0757 222.001L43.296 221.552ZM87.12 221.552L86.8997 221.103L86.8964 221.105L87.12 221.552ZM103.488 208.88L103.87 209.203L103.873 209.198L103.488 208.88ZM113.696 144.288L113.221 144.444L113.221 144.444L113.696 144.288ZM103.488 125.632L103.102 125.95L103.106 125.955L103.488 125.632ZM87.12 112.784L86.8964 113.231L86.8997 113.233L87.12 112.784ZM43.296 112.784L43.5163 113.233L43.5163 113.233L43.296 112.784ZM26.928 125.632L27.31 125.955L27.3135 125.95L26.928 125.632ZM16.72 144.288L17.1951 144.444L17.1951 144.444L16.72 144.288ZM124.46 167.168C124.46 176.27 123.118 184.84 120.438 192.882L121.386 193.198C124.103 185.048 125.46 176.37 125.46 167.168H124.46ZM120.438 192.88C117.759 200.801 113.859 207.725 108.741 213.657L109.499 214.311C114.706 208.275 118.668 201.236 121.386 193.2L120.438 192.88ZM108.741 213.658C103.745 219.467 97.5852 224.06 90.2549 227.434L90.6731 228.342C98.1268 224.911 104.405 220.234 109.499 214.31L108.741 213.658ZM90.2549 227.434C82.9378 230.802 74.6215 232.492 65.296 232.492V233.492C74.7438 233.492 83.2062 231.779 90.6731 228.342L90.2549 227.434ZM65.296 232.492C55.9707 232.492 47.5945 230.802 40.1584 227.433L39.7456 228.343C47.3282 231.779 55.848 233.492 65.296 233.492V232.492ZM40.1611 227.434C32.8299 224.059 26.6099 219.466 21.4954 213.654L20.7446 214.314C25.9554 220.236 32.2901 224.912 39.7429 228.342L40.1611 227.434ZM21.5023 213.662C16.5002 207.729 12.6578 200.804 9.97764 192.88L9.03036 193.2C11.7475 201.234 15.6491 208.271 20.7377 214.306L21.5023 213.662ZM9.97834 192.882C7.29786 184.84 5.956 176.27 5.956 167.168H4.956C4.956 176.37 6.31281 185.048 9.02966 193.198L9.97834 192.882ZM5.956 167.168C5.956 158.066 7.29788 149.555 9.97764 141.632L9.03036 141.312C6.31279 149.346 4.956 157.966 4.956 167.168H5.956ZM9.97834 141.63C12.6586 133.589 16.5003 126.667 21.4991 120.854L20.7409 120.202C15.6491 126.123 11.7467 133.163 9.02966 141.314L9.97834 141.63ZM21.4986 120.855C26.6131 114.926 32.8321 110.276 40.1611 106.902L39.7429 105.994C32.2879 109.425 25.9522 114.162 20.7414 120.201L21.4986 120.855ZM40.1584 106.903C47.5945 103.534 55.9707 101.844 65.296 101.844V100.844C55.848 100.844 47.3282 102.557 39.7456 105.993L40.1584 106.903ZM65.296 101.844C74.6215 101.844 82.9378 103.534 90.2549 106.902L90.6731 105.994C83.2062 102.557 74.7438 100.844 65.296 100.844V101.844ZM90.2549 106.902C97.5829 110.275 103.742 114.925 108.738 120.85L109.502 120.206C104.408 114.163 98.1291 109.426 90.6731 105.994L90.2549 106.902ZM108.745 120.858C113.859 126.67 117.758 133.592 120.438 141.63L121.386 141.314C118.668 133.16 114.706 126.119 109.495 120.198L108.745 120.858ZM120.438 141.632C123.118 149.555 124.46 158.066 124.46 167.168H125.46C125.46 157.966 124.103 149.346 121.386 141.312L120.438 141.632ZM12.7 167.168C12.7 175.313 13.8805 182.993 16.2449 190.204L17.1951 189.892C14.8661 182.789 13.7 175.215 13.7 167.168H12.7ZM16.2449 190.204C18.6095 197.416 22.0411 203.749 26.5425 209.198L27.3135 208.562C22.8975 203.216 19.5238 196.995 17.1951 189.892L16.2449 190.204ZM26.546 209.203C31.051 214.538 36.5628 218.804 43.0757 222.001L43.5163 221.103C37.1225 217.964 31.7223 213.782 27.31 208.557L26.546 209.203ZM43.0757 222.001C49.6067 225.207 57.0172 226.804 65.296 226.804V225.804C57.1481 225.804 49.8919 224.233 43.5163 221.103L43.0757 222.001ZM65.296 226.804C73.5746 226.804 80.9279 225.207 87.3436 221.999L86.8964 221.105C80.6401 224.233 73.4441 225.804 65.296 225.804V226.804ZM87.3403 222.001C93.8532 218.804 99.365 214.538 103.87 209.203L103.106 208.557C98.6937 213.782 93.2935 217.964 86.8997 221.103L87.3403 222.001ZM103.873 209.198C108.375 203.749 111.806 197.416 114.171 190.204L113.221 189.892C110.892 196.995 107.518 203.216 103.103 208.562L103.873 209.198ZM114.171 190.204C116.535 182.993 117.716 175.313 117.716 167.168H116.716C116.716 175.215 115.55 182.789 113.221 189.892L114.171 190.204ZM117.716 167.168C117.716 159.023 116.535 151.343 114.171 144.132L113.221 144.444C115.55 151.547 116.716 159.121 116.716 167.168H117.716ZM114.171 144.132C111.806 136.919 108.374 130.643 103.87 125.309L103.106 125.955C107.52 131.181 110.892 137.342 113.221 144.444L114.171 144.132ZM103.873 125.314C99.3684 119.86 93.8556 115.534 87.3403 112.335L86.8997 113.233C93.2911 116.37 98.6903 120.609 103.103 125.95L103.873 125.314ZM87.3436 112.337C80.9279 109.129 73.5746 107.532 65.296 107.532V108.532C73.4441 108.532 80.6401 110.103 86.8964 113.231L87.3436 112.337ZM65.296 107.532C57.0172 107.532 49.6067 109.129 43.0757 112.335L43.5163 113.233C49.8919 110.103 57.1481 108.532 65.296 108.532V107.532ZM43.0757 112.335C36.5604 115.534 31.0476 119.86 26.5425 125.314L27.3135 125.95C31.7257 120.609 37.1249 116.37 43.5163 113.233L43.0757 112.335ZM26.546 125.309C22.0423 130.643 18.6098 136.919 16.2449 144.132L17.1951 144.444C19.5236 137.342 22.8964 131.181 27.31 125.955L26.546 125.309ZM16.2449 144.132C13.8805 151.343 12.7 159.023 12.7 167.168H13.7C13.7 159.121 14.8661 151.547 17.1951 144.444L16.2449 144.132ZM225.317 140.24L224.818 140.262L224.838 140.74H225.317V140.24ZM221.797 126.16L221.35 126.384L221.355 126.394L221.797 126.16ZM200.853 110.144L200.713 110.624L200.72 110.626L200.726 110.628L200.853 110.144ZM173.573 109.264L173.475 108.774L173.472 108.774L173.573 109.264ZM162.309 113.664L162.562 114.095L162.566 114.093L162.309 113.664ZM153.861 121.936L154.279 122.21L154.284 122.204L153.861 121.936ZM154.213 147.104L153.818 147.411L153.818 147.411L154.213 147.104ZM163.893 154.848L163.669 155.295L163.68 155.3L163.893 154.848ZM193.285 162.768L193.187 163.258L193.189 163.259L193.285 162.768ZM208.949 166.64L208.804 167.119L208.818 167.122L208.949 166.64ZM222.677 172.624L222.405 173.044L222.413 173.048L222.42 173.053L222.677 172.624ZM232.533 182.48L232.104 182.737L232.108 182.743L232.533 182.48ZM221.269 225.072L220.997 224.652L220.992 224.656L221.269 225.072ZM207.013 231.056L206.905 230.568L206.892 230.571L207.013 231.056ZM171.285 230.528L171.408 230.043L171.4 230.041L171.285 230.528ZM154.389 222.96L154.088 223.359L154.094 223.364L154.389 222.96ZM142.949 209.056L142.498 209.272L142.502 209.28L142.949 209.056ZM139.077 188.464V187.964H138.584L138.577 188.457L139.077 188.464ZM146.821 188.464L147.32 188.489L147.347 187.964H146.821V188.464ZM149.813 206.064L149.364 206.283L149.366 206.288L149.813 206.064ZM159.493 217.68L159.195 218.081L159.2 218.085L159.493 217.68ZM174.277 224.368L174.156 224.853L174.165 224.855L174.277 224.368ZM204.021 224.896L203.915 224.407L203.913 224.408L204.021 224.896ZM215.813 220.144L215.552 219.718L215.546 219.722L215.813 220.144ZM224.789 211.344L224.375 211.064L224.369 211.073L224.789 211.344ZM224.789 184.768L224.384 185.061L224.389 185.068L224.789 184.768ZM214.933 176.672L214.699 177.114L214.707 177.118L214.715 177.122L214.933 176.672ZM201.205 171.744L201.081 172.229L201.094 172.232L201.205 171.744ZM185.541 168.224L185.443 168.714L185.445 168.715L185.541 168.224ZM169.877 164.528L170.009 164.046L170.009 164.046L169.877 164.528ZM156.149 158.896L155.886 159.321L155.896 159.327L156.149 158.896ZM146.469 149.568L146.047 149.836L146.051 149.842L146.469 149.568ZM146.469 119.472L146.039 119.216L146.037 119.22L146.469 119.472ZM156.325 109.088L156.597 109.508L156.6 109.506L156.325 109.088ZM170.053 103.28L170.166 103.767L170.177 103.764L170.053 103.28ZM203.317 103.632L203.186 104.115L203.198 104.118L203.317 103.632ZM218.277 110.496L217.977 110.896L217.983 110.901L217.99 110.905L218.277 110.496ZM228.661 122.464L228.218 122.696L228.218 122.696L228.661 122.464ZM233.061 140.24V140.74H233.587L233.56 140.215L233.061 140.24ZM225.817 140.218C225.579 134.761 224.392 129.993 222.239 125.926L221.355 126.394C223.426 130.306 224.586 134.924 224.818 140.262L225.817 140.218ZM222.244 125.936C220.216 121.88 217.41 118.476 213.829 115.731L213.221 116.525C216.68 119.177 219.389 122.462 221.35 126.384L222.244 125.936ZM213.829 115.731C210.249 112.986 205.963 110.965 200.98 109.66L200.726 110.628C205.6 111.904 209.761 113.872 213.221 116.525L213.829 115.731ZM200.994 109.664C196.131 108.241 190.803 107.532 185.013 107.532V108.532C190.722 108.532 195.954 109.231 200.713 110.624L200.994 109.664ZM185.013 107.532C181.455 107.532 177.608 107.947 173.475 108.774L173.671 109.754C177.751 108.938 181.532 108.532 185.013 108.532V107.532ZM173.472 108.774C169.427 109.607 165.62 111.094 162.052 113.235L162.566 114.093C166.038 112.01 169.74 110.564 173.674 109.754L173.472 108.774ZM162.056 113.233C158.581 115.27 155.708 118.085 153.439 121.668L154.284 122.204C156.473 118.747 159.232 116.047 162.562 114.095L162.056 113.233ZM153.443 121.662C151.148 125.165 150.017 129.55 150.017 134.784H151.017C151.017 129.693 152.116 125.512 154.279 122.21L153.443 121.662ZM150.017 134.784C150.017 139.911 151.27 144.135 153.818 147.411L154.608 146.797C152.228 143.737 151.017 139.747 151.017 134.784H150.017ZM153.818 147.411C156.333 150.644 159.621 153.271 163.67 155.295L164.117 154.401C160.187 152.436 157.021 149.9 154.608 146.797L153.818 147.411ZM163.68 155.3C167.708 157.196 172.319 158.732 177.51 159.912L177.732 158.936C172.598 157.77 168.057 156.255 164.106 154.396L163.68 155.3ZM177.51 159.912C182.677 161.086 187.903 162.201 193.187 163.258L193.383 162.278C188.107 161.223 182.89 160.109 177.732 158.936L177.51 159.912ZM193.189 163.259C198.571 164.312 203.776 165.598 208.804 167.119L209.094 166.161C204.032 164.631 198.794 163.336 193.381 162.277L193.189 163.259ZM208.818 167.122C213.937 168.519 218.464 170.494 222.405 173.044L222.949 172.204C218.911 169.592 214.287 167.577 209.081 166.158L208.818 167.122ZM222.42 173.053C226.456 175.475 229.683 178.701 232.104 182.737L232.962 182.223C230.456 178.046 227.111 174.701 222.934 172.195L222.42 173.053ZM232.108 182.743C234.51 186.633 235.729 191.58 235.729 197.616H236.729C236.729 191.449 235.484 186.306 232.959 182.217L232.108 182.743ZM235.729 197.616C235.729 204.115 234.337 209.532 231.582 213.893L232.428 214.427C235.305 209.871 236.729 204.258 236.729 197.616H235.729ZM231.582 213.893C228.804 218.292 225.277 221.877 220.997 224.653L221.541 225.491C225.944 222.635 229.574 218.946 232.428 214.427L231.582 213.893ZM220.992 224.656C216.822 227.436 212.128 229.407 206.905 230.568L207.122 231.544C212.458 230.358 217.268 228.34 221.546 225.488L220.992 224.656ZM206.892 230.571C201.765 231.853 196.819 232.492 192.053 232.492V233.492C196.909 233.492 201.936 232.841 207.134 231.541L206.892 230.571ZM192.053 232.492C184.698 232.492 177.817 231.675 171.408 230.043L171.162 231.013C177.66 232.667 184.624 233.492 192.053 233.492V232.492ZM171.4 230.041C165.005 228.53 159.435 226.033 154.684 222.556L154.094 223.364C158.964 226.927 164.659 229.476 171.17 231.015L171.4 230.041ZM154.691 222.561C149.944 218.972 146.179 214.399 143.396 208.832L142.502 209.28C145.351 214.977 149.213 219.673 154.088 223.359L154.691 222.561ZM143.4 208.84C140.743 203.295 139.461 196.512 139.577 188.471L138.577 188.457C138.459 196.608 139.758 203.553 142.498 209.272L143.4 208.84ZM139.077 188.964H146.821V187.964H139.077V188.964ZM146.322 188.439C145.967 195.421 146.971 201.377 149.364 206.283L150.263 205.845C147.962 201.129 146.972 195.352 147.32 188.489L146.322 188.439ZM149.366 206.288C151.747 211.049 155.024 214.983 159.195 218.081L159.791 217.279C155.749 214.276 152.573 210.465 150.26 205.84L149.366 206.288ZM159.2 218.085C163.482 221.177 168.469 223.431 174.156 224.853L174.398 223.883C168.821 222.489 163.953 220.284 159.786 217.275L159.2 218.085ZM174.165 224.855C179.837 226.155 185.8 226.804 192.053 226.804V225.804C185.869 225.804 179.982 225.162 174.389 223.881L174.165 224.855ZM192.053 226.804C195.849 226.804 199.875 226.33 204.13 225.384L203.913 224.408C199.719 225.34 195.766 225.804 192.053 225.804V226.804ZM204.127 225.385C208.522 224.434 212.508 222.829 216.081 220.566L215.546 219.722C212.078 221.917 208.203 223.48 203.915 224.407L204.127 225.385ZM216.074 220.57C219.777 218.301 222.823 215.314 225.209 211.615L224.369 211.073C222.062 214.648 219.124 217.528 215.552 219.718L216.074 220.57ZM225.203 211.624C227.736 207.885 228.985 203.205 228.985 197.616H227.985C227.985 203.056 226.77 207.528 224.375 211.064L225.203 211.624ZM228.985 197.616C228.985 192.259 227.734 187.862 225.189 184.468L224.389 185.068C226.772 188.245 227.985 192.413 227.985 197.616H228.985ZM225.194 184.475C222.678 181 219.326 178.25 215.152 176.222L214.715 177.122C218.754 179.084 221.973 181.731 224.384 185.061L225.194 184.475ZM215.167 176.23C211.133 174.094 206.514 172.438 201.316 171.256L201.094 172.232C206.221 173.397 210.755 175.026 214.699 177.114L215.167 176.23ZM201.329 171.26C196.274 169.966 191.043 168.791 185.637 167.733L185.445 168.715C190.834 169.769 196.046 170.94 201.081 172.228L201.329 171.26ZM185.639 167.734C180.37 166.68 175.16 165.451 170.009 164.046L169.746 165.01C174.919 166.421 180.152 167.656 185.443 168.714L185.639 167.734ZM170.009 164.046C164.882 162.648 160.348 160.786 156.403 158.465L155.896 159.327C159.929 161.699 164.547 163.592 169.746 165.01L170.009 164.046ZM156.412 158.471C152.482 156.043 149.309 152.985 146.887 149.294L146.051 149.842C148.557 153.661 151.838 156.821 155.886 159.321L156.412 158.471ZM146.891 149.3C144.491 145.529 143.273 140.701 143.273 134.784H142.273C142.273 140.835 143.519 145.863 146.047 149.836L146.891 149.3ZM143.273 134.784C143.273 128.869 144.491 123.856 146.901 119.724L146.037 119.22C143.52 123.536 142.273 128.731 142.273 134.784H143.273ZM146.899 119.728C149.443 115.448 152.676 112.045 156.597 109.508L156.053 108.668C151.995 111.294 148.658 114.813 146.039 119.216L146.899 119.728ZM156.6 109.506C160.654 106.841 165.175 104.928 170.166 103.767L169.94 102.793C164.84 103.979 160.209 105.937 156.051 108.67L156.6 109.506ZM170.177 103.764C175.184 102.484 180.129 101.844 185.013 101.844V100.844C180.041 100.844 175.013 101.495 169.929 102.796L170.177 103.764ZM185.013 101.844C191.545 101.844 197.602 102.602 203.186 104.115L203.448 103.149C197.768 101.611 191.622 100.844 185.013 100.844V101.844ZM203.198 104.118C208.89 105.512 213.813 107.773 217.977 110.896L218.577 110.096C214.293 106.883 209.243 104.568 203.436 103.146L203.198 104.118ZM217.99 110.905C222.263 113.908 225.672 117.835 228.218 122.696L229.104 122.232C226.488 117.237 222.974 113.186 218.565 110.087L217.99 110.905ZM228.218 122.696C230.759 127.546 232.213 133.398 232.562 140.265L233.56 140.215C233.206 133.237 231.726 127.238 229.104 122.232L228.218 122.696ZM233.061 139.74H225.317V140.74H233.061V139.74ZM238.415 111.024H237.915V111.524H238.415V111.024ZM238.415 104.336V103.836H237.915V104.336H238.415ZM334.687 104.336H335.187V103.836H334.687V104.336ZM334.687 111.024V111.524H335.187V111.024H334.687ZM290.335 111.024V110.524H289.835V111.024H290.335ZM290.335 230V230.5H290.835V230H290.335ZM282.591 230H282.091V230.5H282.591V230ZM282.591 111.024H283.091V110.524H282.591V111.024ZM238.915 111.024V104.336H237.915V111.024H238.915ZM238.415 104.836H334.687V103.836H238.415V104.836ZM334.187 104.336V111.024H335.187V104.336H334.187ZM334.687 110.524H290.335V111.524H334.687V110.524ZM289.835 111.024V230H290.835V111.024H289.835ZM290.335 229.5H282.591V230.5H290.335V229.5ZM283.091 230V111.024H282.091V230H283.091ZM282.591 110.524H238.415V111.524H282.591V110.524ZM344.993 104.336V103.836H344.493V104.336H344.993ZM429.473 104.336H429.973V103.836H429.473V104.336ZM429.473 111.024V111.524H429.973V111.024H429.473ZM352.737 111.024V110.524H352.237V111.024H352.737ZM352.737 161.36H352.237V161.86H352.737V161.36ZM424.897 161.36H425.397V160.86H424.897V161.36ZM424.897 168.048V168.548H425.397V168.048H424.897ZM352.737 168.048V167.548H352.237V168.048H352.737ZM352.737 223.312H352.237V223.812H352.737V223.312ZM430.353 223.312H430.853V222.812H430.353V223.312ZM430.353 230V230.5H430.853V230H430.353ZM344.993 230H344.493V230.5H344.993V230ZM344.993 104.836H429.473V103.836H344.993V104.836ZM428.973 104.336V111.024H429.973V104.336H428.973ZM429.473 110.524H352.737V111.524H429.473V110.524ZM352.237 111.024V161.36H353.237V111.024H352.237ZM352.737 161.86H424.897V160.86H352.737V161.86ZM424.397 161.36V168.048H425.397V161.36H424.397ZM424.897 167.548H352.737V168.548H424.897V167.548ZM352.237 168.048V223.312H353.237V168.048H352.237ZM352.737 223.812H430.353V222.812H352.737V223.812ZM429.853 223.312V230H430.853V223.312H429.853ZM430.353 229.5H344.993V230.5H430.353V229.5ZM345.493 230V104.336H344.493V230H345.493ZM555.061 193.04L555.535 193.2L555.536 193.198L555.061 193.04ZM543.269 213.984L542.891 213.657L542.89 213.658L543.269 213.984ZM524.613 227.888L524.404 227.434L524.404 227.434L524.613 227.888ZM474.101 227.888L473.892 228.342L473.895 228.343L474.101 227.888ZM455.269 213.984L454.887 214.306L454.894 214.314L455.269 213.984ZM443.653 193.04L443.179 193.198L443.18 193.2L443.653 193.04ZM443.653 141.472L444.127 141.632L444.128 141.63L443.653 141.472ZM455.269 120.528L454.891 120.201L454.89 120.202L455.269 120.528ZM474.101 106.448L473.895 105.993L473.892 105.994L474.101 106.448ZM524.613 106.448L524.404 106.902L524.404 106.902L524.613 106.448ZM543.269 120.528L542.887 120.85L542.894 120.858L543.269 120.528ZM555.061 141.472L554.587 141.63L554.588 141.632L555.061 141.472ZM450.869 190.048L451.344 189.892L451.344 189.892L450.869 190.048ZM461.077 208.88L460.692 209.198L460.695 209.203L461.077 208.88ZM477.445 221.552L477.225 222.001L477.225 222.001L477.445 221.552ZM521.269 221.552L521.049 221.103L521.046 221.105L521.269 221.552ZM537.637 208.88L538.019 209.203L538.023 209.198L537.637 208.88ZM547.845 144.288L547.37 144.444L547.37 144.444L547.845 144.288ZM537.637 125.632L537.252 125.95L537.255 125.955L537.637 125.632ZM521.269 112.784L521.046 113.231L521.049 113.233L521.269 112.784ZM477.445 112.784L477.666 113.233L477.666 113.233L477.445 112.784ZM461.077 125.632L461.459 125.955L461.463 125.95L461.077 125.632ZM450.869 144.288L451.344 144.444L451.344 144.444L450.869 144.288ZM558.609 167.168C558.609 176.27 557.268 184.84 554.587 192.882L555.536 193.198C558.253 185.048 559.609 176.37 559.609 167.168H558.609ZM554.588 192.88C551.908 200.801 548.009 207.725 542.891 213.657L543.648 214.311C548.855 208.275 552.817 201.236 555.535 193.2L554.588 192.88ZM542.89 213.658C537.894 219.467 531.735 224.06 524.404 227.434L524.822 228.342C532.276 224.911 538.554 220.234 543.648 214.31L542.89 213.658ZM524.404 227.434C517.087 230.802 508.771 232.492 499.445 232.492V233.492C508.893 233.492 517.356 231.779 524.822 228.342L524.404 227.434ZM499.445 232.492C490.12 232.492 481.744 230.802 474.308 227.433L473.895 228.343C481.478 231.779 489.997 233.492 499.445 233.492V232.492ZM474.31 227.434C466.979 224.059 460.759 219.466 455.645 213.654L454.894 214.314C460.105 220.236 466.44 224.912 473.892 228.342L474.31 227.434ZM455.652 213.662C450.65 207.729 446.807 200.804 444.127 192.88L443.18 193.2C445.897 201.234 449.798 208.271 454.887 214.306L455.652 213.662ZM444.128 192.882C441.447 184.84 440.105 176.27 440.105 167.168H439.105C439.105 176.37 440.462 185.048 443.179 193.198L444.128 192.882ZM440.105 167.168C440.105 158.066 441.447 149.555 444.127 141.632L443.18 141.312C440.462 149.346 439.105 157.966 439.105 167.168H440.105ZM444.128 141.63C446.808 133.589 450.65 126.667 455.648 120.854L454.89 120.202C449.798 126.123 445.896 133.163 443.179 141.314L444.128 141.63ZM455.648 120.855C460.763 114.926 466.981 110.276 474.31 106.902L473.892 105.994C466.437 109.425 460.102 114.162 454.891 120.201L455.648 120.855ZM474.308 106.903C481.744 103.534 490.12 101.844 499.445 101.844V100.844C489.997 100.844 481.478 102.557 473.895 105.993L474.308 106.903ZM499.445 101.844C508.771 101.844 517.087 103.534 524.404 106.902L524.822 105.994C517.356 102.557 508.893 100.844 499.445 100.844V101.844ZM524.404 106.902C531.732 110.275 537.891 114.925 542.887 120.85L543.652 120.206C538.557 114.163 532.278 109.426 524.822 105.994L524.404 106.902ZM542.894 120.858C548.009 126.67 551.908 133.592 554.587 141.63L555.536 141.314C552.818 133.16 548.856 126.119 543.645 120.198L542.894 120.858ZM554.588 141.632C557.268 149.555 558.609 158.066 558.609 167.168H559.609C559.609 157.966 558.253 149.346 555.535 141.312L554.588 141.632ZM446.849 167.168C446.849 175.313 448.03 182.993 450.394 190.204L451.344 189.892C449.016 182.789 447.849 175.215 447.849 167.168H446.849ZM450.394 190.204C452.759 197.416 456.191 203.749 460.692 209.198L461.463 208.562C457.047 203.216 453.673 196.995 451.344 189.892L450.394 190.204ZM460.695 209.203C465.2 214.538 470.712 218.804 477.225 222.001L477.666 221.103C471.272 217.964 465.872 213.782 461.459 208.557L460.695 209.203ZM477.225 222.001C483.756 225.207 491.167 226.804 499.445 226.804V225.804C491.298 225.804 484.041 224.233 477.666 221.103L477.225 222.001ZM499.445 226.804C507.724 226.804 515.077 225.207 521.493 221.999L521.046 221.105C514.789 224.233 507.593 225.804 499.445 225.804V226.804ZM521.49 222.001C528.003 218.804 533.514 214.538 538.019 209.203L537.255 208.557C532.843 213.782 527.443 217.964 521.049 221.103L521.49 222.001ZM538.023 209.198C542.524 203.749 545.956 197.416 548.321 190.204L547.37 189.892C545.042 196.995 541.668 203.216 537.252 208.562L538.023 209.198ZM548.321 190.204C550.685 182.993 551.865 175.313 551.865 167.168H550.865C550.865 175.215 549.699 182.789 547.37 189.892L548.321 190.204ZM551.865 167.168C551.865 159.023 550.685 151.343 548.321 144.132L547.37 144.444C549.699 151.547 550.865 159.121 550.865 167.168H551.865ZM548.321 144.132C545.956 136.919 542.523 130.643 538.019 125.309L537.255 125.955C541.669 131.181 545.042 137.342 547.37 144.444L548.321 144.132ZM538.023 125.314C533.518 119.86 528.005 115.534 521.49 112.335L521.049 113.233C527.44 116.37 532.84 120.609 537.252 125.95L538.023 125.314ZM521.493 112.337C515.077 109.129 507.724 107.532 499.445 107.532V108.532C507.593 108.532 514.789 110.103 521.046 113.231L521.493 112.337ZM499.445 107.532C491.167 107.532 483.756 109.129 477.225 112.335L477.666 113.233C484.041 110.103 491.298 108.532 499.445 108.532V107.532ZM477.225 112.335C470.71 115.534 465.197 119.86 460.692 125.314L461.463 125.95C465.875 120.609 471.274 116.37 477.666 113.233L477.225 112.335ZM460.695 125.309C456.192 130.643 452.759 136.919 450.394 144.132L451.344 144.444C453.673 137.342 457.046 131.181 461.459 125.955L460.695 125.309ZM450.394 144.132C448.03 151.343 446.849 159.023 446.849 167.168H447.849C447.849 159.121 449.016 151.547 451.344 144.444L450.394 144.132ZM577.45 104.336V103.836H576.95V104.336H577.45ZM642.57 105.568L642.475 106.059L642.478 106.059L642.57 105.568ZM654.538 110.672L654.249 111.08L654.257 111.085L654.264 111.09L654.538 110.672ZM663.866 121.408L663.424 121.64L663.426 121.645L663.866 121.408ZM657.354 165.056L657.024 164.681L657.024 164.681L657.354 165.056ZM585.194 174.032V173.532H584.694V174.032H585.194ZM585.194 230V230.5H585.694V230H585.194ZM577.45 230H576.95V230.5H577.45V230ZM585.194 167.344H584.694V167.844H585.194V167.344ZM643.626 164.88L643.822 165.34L643.828 165.337L643.626 164.88ZM653.13 158.192L653.508 158.52L653.508 158.52L653.13 158.192ZM658.762 131.088L658.274 131.193L658.274 131.196L658.762 131.088ZM654.538 121.76L654.127 122.045L654.133 122.052L654.538 121.76ZM645.562 114.192L645.317 114.628L645.325 114.632L645.334 114.636L645.562 114.192ZM585.194 111.024V110.524H584.694V111.024H585.194ZM577.45 104.836H630.954V103.836H577.45V104.836ZM630.954 104.836C634.436 104.836 638.276 105.242 642.475 106.059L642.666 105.077C638.417 104.251 634.513 103.836 630.954 103.836V104.836ZM642.478 106.059C646.747 106.867 650.67 108.54 654.249 111.08L654.828 110.264C651.132 107.642 647.076 105.912 642.663 105.077L642.478 106.059ZM654.264 111.09C657.936 113.5 660.992 117.009 663.424 121.64L664.309 121.176C661.813 116.421 658.65 112.772 654.813 110.254L654.264 111.09ZM663.426 121.645C665.837 126.123 667.062 132.075 667.062 139.536H668.062C668.062 131.978 666.824 125.845 664.307 121.171L663.426 121.645ZM667.062 139.536C667.062 150.456 663.699 158.812 657.024 164.681L657.685 165.431C664.621 159.332 668.062 150.675 668.062 139.536H667.062ZM657.024 164.681C650.341 170.557 640.737 173.532 628.138 173.532V174.532C640.884 174.532 650.757 171.523 657.685 165.431L657.024 164.681ZM628.138 173.532H585.194V174.532H628.138V173.532ZM584.694 174.032V230H585.694V174.032H584.694ZM585.194 229.5H577.45V230.5H585.194V229.5ZM577.95 230V104.336H576.95V230H577.95ZM585.194 167.844H629.37V166.844H585.194V167.844ZM629.37 167.844C635.048 167.844 639.871 167.016 643.822 165.34L643.431 164.42C639.638 166.029 634.957 166.844 629.37 166.844V167.844ZM643.828 165.337C647.87 163.554 651.103 161.285 653.508 158.52L652.753 157.864C650.464 160.496 647.361 162.686 643.425 164.423L643.828 165.337ZM653.508 158.52C655.897 155.772 657.633 152.721 658.711 149.369L657.758 149.063C656.724 152.282 655.057 155.214 652.753 157.864L653.508 158.52ZM658.711 149.369C659.782 146.037 660.318 142.7 660.318 139.36H659.318C659.318 142.591 658.799 145.825 657.758 149.063L658.711 149.369ZM660.318 139.36C660.318 136.966 659.96 134.171 659.251 130.98L658.274 131.196C658.973 134.341 659.318 137.061 659.318 139.36H660.318ZM659.251 130.983C658.532 127.625 657.094 124.453 654.944 121.468L654.133 122.052C656.207 124.934 657.585 127.98 658.274 131.193L659.251 130.983ZM654.95 121.475C652.783 118.346 649.724 115.773 645.791 113.748L645.334 114.636C649.145 116.6 652.07 119.072 654.127 122.045L654.95 121.475ZM645.808 113.756C641.951 111.587 636.811 110.524 630.426 110.524V111.524C636.714 111.524 641.665 112.573 645.317 114.628L645.808 113.756ZM630.426 110.524H585.194V111.524H630.426V110.524ZM584.694 111.024V167.344H585.694V111.024H584.694ZM707.788 104.336V103.836H707.45L707.324 104.15L707.788 104.336ZM716.236 104.336L716.701 104.152L716.576 103.836H716.236V104.336ZM765.868 230V230.5H766.603L766.333 229.816L765.868 230ZM757.596 230L757.131 230.183L757.255 230.5H757.596V230ZM741.756 189.696L742.221 189.513L742.097 189.196H741.756V189.696ZM681.564 189.696V189.196H681.225L681.099 189.511L681.564 189.696ZM665.548 230V230.5H665.887L666.013 230.185L665.548 230ZM657.276 230L656.812 229.814L656.536 230.5H657.276V230ZM739.292 183.008V183.508H740.016L739.76 182.831L739.292 183.008ZM712.364 111.904L712.832 111.727L712.709 111.404H712.364V111.904ZM712.012 111.904V111.404H711.672L711.547 111.721L712.012 111.904ZM684.028 183.008L683.563 182.825L683.294 183.508H684.028V183.008ZM707.788 104.836H716.236V103.836H707.788V104.836ZM715.771 104.52L765.403 230.184L766.333 229.816L716.701 104.152L715.771 104.52ZM765.868 229.5H757.596V230.5H765.868V229.5ZM758.061 229.817L742.221 189.513L741.291 189.879L757.131 230.183L758.061 229.817ZM741.756 189.196H681.564V190.196H741.756V189.196ZM681.099 189.511L665.083 229.815L666.013 230.185L682.029 189.881L681.099 189.511ZM665.548 229.5H657.276V230.5H665.548V229.5ZM657.74 230.186L708.252 104.522L707.324 104.15L656.812 229.814L657.74 230.186ZM739.76 182.831L712.832 111.727L711.897 112.081L738.825 183.185L739.76 182.831ZM712.364 111.404H712.012V112.404H712.364V111.404ZM711.547 111.721L683.563 182.825L684.493 183.191L712.477 112.087L711.547 111.721ZM684.028 183.508H739.292V182.508H684.028V183.508ZM749.262 111.024H748.762V111.524H749.262V111.024ZM749.262 104.336V103.836H748.762V104.336H749.262ZM845.534 104.336H846.034V103.836H845.534V104.336ZM845.534 111.024V111.524H846.034V111.024H845.534ZM801.182 111.024V110.524H800.682V111.024H801.182ZM801.182 230V230.5H801.682V230H801.182ZM793.438 230H792.938V230.5H793.438V230ZM793.438 111.024H793.938V110.524H793.438V111.024ZM749.762 111.024V104.336H748.762V111.024H749.762ZM749.262 104.836H845.534V103.836H749.262V104.836ZM845.034 104.336V111.024H846.034V104.336H845.034ZM845.534 110.524H801.182V111.524H845.534V110.524ZM800.682 111.024V230H801.682V111.024H800.682ZM801.182 229.5H793.438V230.5H801.182V229.5ZM793.938 230V111.024H792.938V230H793.938ZM793.438 110.524H749.262V111.524H793.438V110.524ZM879.402 104.336V103.836H879.064L878.938 104.15L879.402 104.336ZM887.85 104.336L888.315 104.152L888.19 103.836H887.85V104.336ZM937.482 230V230.5H938.217L937.947 229.816L937.482 230ZM929.21 230L928.745 230.183L928.869 230.5H929.21V230ZM913.37 189.696L913.835 189.513L913.711 189.196H913.37V189.696ZM853.178 189.696V189.196H852.839L852.713 189.511L853.178 189.696ZM837.162 230V230.5H837.501L837.627 230.185L837.162 230ZM828.89 230L828.426 229.814L828.15 230.5H828.89V230ZM910.906 183.008V183.508H911.63L911.373 182.831L910.906 183.008ZM883.978 111.904L884.445 111.727L884.323 111.404H883.978V111.904ZM883.626 111.904V111.404H883.285L883.161 111.721L883.626 111.904ZM855.642 183.008L855.177 182.825L854.908 183.508H855.642V183.008ZM879.402 104.836H887.85V103.836H879.402V104.836ZM887.385 104.52L937.017 230.184L937.947 229.816L888.315 104.152L887.385 104.52ZM937.482 229.5H929.21V230.5H937.482V229.5ZM929.675 229.817L913.835 189.513L912.905 189.879L928.745 230.183L929.675 229.817ZM913.37 189.196H853.178V190.196H913.37V189.196ZM852.713 189.511L836.697 229.815L837.627 230.185L853.643 189.881L852.713 189.511ZM837.162 229.5H828.89V230.5H837.162V229.5ZM829.354 230.186L879.866 104.522L878.938 104.15L828.426 229.814L829.354 230.186ZM911.373 182.831L884.445 111.727L883.51 112.081L910.438 183.185L911.373 182.831ZM883.978 111.404H883.626V112.404H883.978V111.404ZM883.161 111.721L855.177 182.825L856.107 183.191L884.091 112.087L883.161 111.721ZM855.642 183.508H910.906V182.508H855.642V183.508Z" fill="#A31236"/>
<path d="M973.34 79.5987H1067.84L1022.37 152.934L973.34 79.5987Z" stroke="#A31236" stroke-width="6"/>
<path d="M973.34 226.269H1067.84L1022.37 152.934L973.34 226.269Z" stroke="#A31236" stroke-width="6"/>
<path d="M973.338 53.4104C973.338 44.7314 994.492 37.6957 1020.59 37.6957C1046.68 37.6957 1067.84 44.7314 1067.84 53.4104C1067.84 62.0893 1046.68 69.125 1020.59 69.125C994.492 69.125 973.338 62.0893 973.338 53.4104Z" stroke="#A31236" stroke-width="6"/>
<path d="M1022.73 6.26562C990.883 6.26562 962.858 28.7235 962.465 60.3938C961.398 102.792 991.702 127.539 1022.41 154.682C1053.3 126.744 1079.29 102.893 1080.56 60.3938C1080.17 28.7208 1054.59 6.26562 1022.73 6.26562Z" stroke="#A31236" stroke-width="6"/>
<path d="M1022.4 79.6055C1012.6 79.6055 998.912 89.8874 998.791 104.387C998.462 123.798 1012.96 138.767 1022.4 151.194C1031.45 138.238 1043.82 123.845 1044.21 104.387C1044.09 89.8861 1032.21 79.6055 1022.4 79.6055Z" stroke="#A31236" stroke-width="6"/>
<path d="M1022.4 226.262C1012.6 226.262 998.912 215.98 998.791 201.48C998.462 182.069 1012.96 167.1 1022.4 154.673C1031.45 167.629 1043.82 182.023 1044.21 201.48C1044.09 215.981 1032.21 226.262 1022.4 226.262Z" stroke="#A31236" stroke-width="6"/>
</svg>
