<svg width="43" height="44" viewBox="0 0 43 44" fill="none" xmlns="http://www.w3.org/2000/svg">
<path fill-rule="evenodd" clip-rule="evenodd" d="M39.5 22C39.5 31.9411 31.4411 40 21.5 40C11.5589 40 3.5 31.9411 3.5 22C3.5 12.0589 11.5589 4 21.5 4C31.4411 4 39.5 12.0589 39.5 22ZM41.5 22C41.5 33.0457 32.5457 42 21.5 42C10.4543 42 1.5 33.0457 1.5 22C1.5 10.9543 10.4543 2 21.5 2C32.5457 2 41.5 10.9543 41.5 22ZM29.5 25C30.0523 25 30.5 25.4477 30.5 26C30.5 26.5523 30.0523 27 29.5 27H21.5C20.9477 27 20.5 26.5523 20.5 26V12C20.5 11.4477 20.9477 11 21.5 11C22.0523 11 22.5 11.4477 22.5 12V25H29.5Z" fill="#A31236"/>
<path d="M22.5 25H21V26.5H22.5V25ZM21.5 41.5C32.2696 41.5 41 32.7696 41 22H38C38 31.1127 30.6127 38.5 21.5 38.5V41.5ZM2 22C2 32.7696 10.7304 41.5 21.5 41.5V38.5C12.3873 38.5 5 31.1127 5 22H2ZM21.5 2.5C10.7304 2.5 2 11.2304 2 22H5C5 12.8873 12.3873 5.5 21.5 5.5V2.5ZM41 22C41 11.2304 32.2696 2.5 21.5 2.5V5.5C30.6127 5.5 38 12.8873 38 22H41ZM21.5 43.5C33.3741 43.5 43 33.8741 43 22H40C40 32.2173 31.7173 40.5 21.5 40.5V43.5ZM0 22C0 33.8741 9.62588 43.5 21.5 43.5V40.5C11.2827 40.5 3 32.2173 3 22H0ZM21.5 0.5C9.62588 0.5 0 10.1259 0 22H3C3 11.7827 11.2827 3.5 21.5 3.5V0.5ZM43 22C43 10.1259 33.3741 0.5 21.5 0.5V3.5C31.7173 3.5 40 11.7827 40 22H43ZM32 26C32 24.6193 30.8807 23.5 29.5 23.5V26.5C29.2239 26.5 29 26.2761 29 26H32ZM29.5 28.5C30.8807 28.5 32 27.3807 32 26H29C29 25.7239 29.2239 25.5 29.5 25.5V28.5ZM21.5 28.5H29.5V25.5H21.5V28.5ZM19 26C19 27.3807 20.1193 28.5 21.5 28.5V25.5C21.7761 25.5 22 25.7239 22 26H19ZM19 12V26H22V12H19ZM21.5 9.5C20.1193 9.5 19 10.6193 19 12H22C22 12.2761 21.7761 12.5 21.5 12.5V9.5ZM24 12C24 10.6193 22.8807 9.5 21.5 9.5V12.5C21.2239 12.5 21 12.2761 21 12H24ZM24 25V12H21V25H24ZM29.5 23.5H22.5V26.5H29.5V23.5Z" fill="#A31236"/>
</svg>
