<svg width="35" height="35" viewBox="0 0 35 35" fill="none" xmlns="http://www.w3.org/2000/svg">
<path d="M25.8976 20.1114C25.8294 20.0786 23.2778 18.8221 22.8244 18.659C22.6393 18.5925 22.441 18.5276 22.2301 18.5276C21.8855 18.5276 21.5961 18.6993 21.3706 19.0366C21.1157 19.4154 20.3441 20.3174 20.1057 20.5868C20.0746 20.6224 20.0321 20.6649 20.0066 20.6649C19.9838 20.6649 19.5889 20.5023 19.4694 20.4503C16.7322 19.2613 14.6546 16.4021 14.3697 15.92C14.329 15.8507 14.3273 15.8192 14.327 15.8192C14.337 15.7825 14.429 15.6902 14.4765 15.6426C14.6155 15.5051 14.7661 15.3238 14.9118 15.1485C14.9807 15.0654 15.0498 14.9823 15.1177 14.9038C15.329 14.6579 15.4231 14.467 15.5322 14.2459L15.5894 14.131C15.8557 13.6018 15.6282 13.1552 15.5547 13.011C15.4944 12.8903 14.417 10.2901 14.3024 10.0169C14.027 9.35771 13.663 9.05078 13.1572 9.05078C13.1103 9.05078 13.1572 9.05078 12.9604 9.05908C12.7207 9.06919 11.4156 9.24101 10.8386 9.60476C10.2266 9.99055 9.19141 11.2203 9.19141 13.3831C9.19141 15.3295 10.4266 17.1674 10.957 17.8664C10.9702 17.884 10.9944 17.9198 11.0295 17.9711C13.0605 20.9373 15.5924 23.1354 18.1591 24.1608C20.6302 25.1478 21.8003 25.2619 22.4655 25.2619C22.4656 25.2619 22.4656 25.2619 22.4656 25.2619C22.7452 25.2619 22.9689 25.24 23.1663 25.2206L23.2915 25.2086C24.1452 25.1329 26.0211 24.1609 26.4478 22.9751C26.7839 22.0411 26.8726 21.0207 26.6489 20.6503C26.4957 20.3985 26.2318 20.2718 25.8976 20.1114Z" fill="#A31236"/>
<path d="M17.8107 0C8.33157 0 0.619747 7.65386 0.619747 17.0617C0.619747 20.1045 1.43407 23.0831 2.97668 25.6899L0.0240645 34.3995C-0.0309355 34.5619 0.00997361 34.7415 0.130087 34.8638C0.216792 34.9523 0.334406 35 0.454519 35C0.500542 35 0.546906 34.9931 0.592133 34.9786L9.67396 32.0927C12.1592 33.4206 14.9681 34.1215 17.8108 34.1215C27.289 34.1216 35 26.4685 35 17.0617C35 7.65386 27.289 0 17.8107 0ZM17.8107 30.5675C15.1358 30.5675 12.545 29.7951 10.3179 28.3338C10.2431 28.2845 10.1561 28.2593 10.0686 28.2593C10.0224 28.2593 9.976 28.2664 9.93089 28.2807L5.38145 29.7268L6.85009 25.394C6.89759 25.2537 6.87384 25.0991 6.78634 24.9795C5.09043 22.6623 4.19395 19.9244 4.19395 17.0617C4.19395 9.61364 10.3024 3.55409 17.8106 3.55409C25.3178 3.55409 31.4256 9.61364 31.4256 17.0617C31.4257 24.5089 25.3181 30.5675 17.8107 30.5675Z" fill="#A31236"/>
</svg>
